<svg width="1946" height="563" viewBox="0 0 1946 563" fill="none" xmlns="http://www.w3.org/2000/svg">
<g clip-path="url(#clip0_451_15)">
<path d="M128.588 482.859C102.221 482.859 79.1087 478.872 59.252 470.896C39.5579 462.921 23.9329 451.528 12.377 436.717C0.820964 421.743 -5.68945 403.921 -7.1543 383.25L-7.39844 379.588H46.0684L46.5566 382.762C48.1842 393.504 52.6602 402.863 59.9844 410.838C67.4714 418.65 77.237 424.673 89.2812 428.904C101.326 433.136 115.16 435.252 130.785 435.252C146.573 435.252 160.163 433.055 171.557 428.66C182.95 424.266 191.739 417.999 197.924 409.861C204.271 401.723 207.445 392.202 207.445 381.297V381.053C207.445 366.893 202.318 355.662 192.064 347.361C181.973 338.898 165.209 332.143 141.771 327.098L103.441 319.041C68.9362 311.717 43.2201 299.998 26.293 283.885C9.36589 267.609 0.902344 246.45 0.902344 220.408V220.164C1.0651 200.145 6.59896 182.566 17.5039 167.43C28.4089 152.13 43.4642 140.249 62.6699 131.785C81.8757 123.159 103.93 118.846 128.832 118.846C153.246 118.846 174.812 122.996 193.529 131.297C212.247 139.598 227.058 151.235 237.963 166.209C248.868 181.02 254.971 198.354 256.273 218.211L256.518 222.117H203.051L202.562 218.943C201.098 207.876 197.029 198.436 190.355 190.623C183.845 182.811 175.3 176.87 164.721 172.801C154.141 168.569 141.853 166.453 127.855 166.453C113.37 166.453 100.756 168.65 90.0137 173.045C79.2715 177.277 70.9707 183.217 65.1113 190.867C59.252 198.517 56.3223 207.55 56.3223 217.967V218.211C56.3223 231.395 61.5306 242.137 71.9473 250.438C82.3639 258.738 98.5586 265.249 120.531 269.969L158.861 278.27C183.113 283.315 202.888 290.151 218.188 298.777C233.487 307.404 244.799 318.146 252.123 331.004C259.447 343.862 263.109 359.406 263.109 377.635V377.879C263.109 399.363 257.657 417.999 246.752 433.787C236.01 449.412 220.548 461.538 200.365 470.164C180.346 478.628 156.42 482.859 128.588 482.859ZM346.273 481.639C329.184 481.639 314.21 478.383 301.352 471.873C288.493 465.363 278.484 456.248 271.322 444.529C264.161 432.811 260.58 419.301 260.58 404.002V403.514C260.58 388.54 264.324 375.682 271.811 364.939C279.298 354.035 290.121 345.408 304.281 339.061C318.604 332.713 335.857 328.969 356.039 327.83L453.207 321.971V359.08L363.119 364.695C347.331 365.672 335.124 369.497 326.498 376.17C318.035 382.68 313.803 391.388 313.803 402.293V402.781C313.803 414.012 318.035 422.882 326.498 429.393C335.124 435.903 346.518 439.158 360.678 439.158C373.048 439.158 384.115 436.635 393.881 431.59C403.809 426.544 411.622 419.627 417.318 410.838C423.015 401.886 425.863 391.876 425.863 380.809V304.393C425.863 290.232 421.469 279.165 412.68 271.189C403.891 263.051 391.277 258.982 374.838 258.982C359.701 258.982 347.494 262.238 338.217 268.748C329.102 275.258 323.406 283.641 321.127 293.895L320.639 296.092H270.834L271.078 293.406C272.38 278.595 277.344 265.33 285.971 253.611C294.597 241.73 306.56 232.371 321.859 225.535C337.159 218.699 355.307 215.281 376.303 215.281C397.299 215.281 415.447 218.781 430.746 225.779C446.046 232.778 457.927 242.625 466.391 255.32C474.854 268.016 479.086 282.908 479.086 299.998V477H425.863V436.473H424.887C419.841 445.75 413.331 453.807 405.355 460.643C397.38 467.316 388.347 472.524 378.256 476.268C368.327 479.848 357.667 481.639 346.273 481.639ZM497.064 477V220.164H550.287V477H497.064ZM523.676 180.613C515.212 180.613 507.969 177.684 501.947 171.824C495.925 165.802 492.914 158.641 492.914 150.34C492.914 141.714 495.925 134.471 501.947 128.611C507.969 122.752 515.212 119.822 523.676 119.822C532.302 119.822 539.545 122.752 545.404 128.611C551.426 134.471 554.438 141.714 554.438 150.34C554.438 158.641 551.426 165.802 545.404 171.824C539.545 177.684 532.302 180.613 523.676 180.613ZM569.242 477V220.164H622.465V258.982H623.441C630.277 245.962 640.287 235.464 653.471 227.488C666.654 219.35 682.93 215.281 702.299 215.281C730.456 215.281 752.266 223.826 767.729 240.916C783.191 257.843 790.922 281.118 790.922 310.74V477H737.943V320.994C737.943 301.626 733.386 286.733 724.271 276.316C715.32 265.9 701.729 260.691 683.5 260.691C671.13 260.691 660.307 263.458 651.029 268.992C641.915 274.526 634.835 282.257 629.789 292.186C624.906 302.114 622.465 313.833 622.465 327.342V477H569.242ZM897.279 482.127C871.889 482.127 852.927 476.43 840.395 465.037C828.025 453.481 821.84 434.845 821.84 409.129V262.156H784.975V220.164H821.84V153.27H876.039V220.164H924.135V262.156H876.039V406.199C876.039 419.22 878.887 428.172 884.584 433.055C890.281 437.775 898.744 440.135 909.975 440.135C912.742 440.135 915.264 440.053 917.543 439.891C919.984 439.565 922.182 439.321 924.135 439.158V479.93C921.042 480.418 917.136 480.906 912.416 481.395C907.696 481.883 902.65 482.127 897.279 482.127ZM1037.33 482.127C1012.75 482.127 991.267 476.756 972.875 466.014C954.646 455.109 940.486 439.728 930.395 419.871C920.303 399.852 915.258 376.089 915.258 348.582V348.094C915.258 320.75 920.303 297.15 930.395 277.293C940.648 257.436 954.89 242.137 973.119 231.395C991.511 220.652 1012.83 215.281 1037.08 215.281C1061.5 215.281 1082.82 220.652 1101.05 231.395C1119.44 241.974 1133.68 257.192 1143.77 277.049C1154.03 296.906 1159.15 320.587 1159.15 348.094V348.582C1159.15 376.251 1154.03 400.014 1143.77 419.871C1133.68 439.728 1119.52 455.109 1101.29 466.014C1083.06 476.756 1061.74 482.127 1037.33 482.127ZM1037.57 437.693C1051.24 437.693 1063.13 434.194 1073.22 427.195C1083.31 420.197 1091.12 410.105 1096.65 396.922C1102.19 383.576 1104.96 367.462 1104.96 348.582V348.094C1104.96 329.376 1102.19 313.426 1096.65 300.242C1091.12 286.896 1083.23 276.805 1072.97 269.969C1062.72 262.97 1050.76 259.471 1037.08 259.471C1023.57 259.471 1011.69 262.97 1001.44 269.969C991.348 276.967 983.454 287.059 977.758 300.242C972.061 313.426 969.213 329.376 969.213 348.094V348.582C969.213 367.462 971.98 383.576 977.514 396.922C983.21 410.105 991.186 420.197 1001.44 427.195C1011.69 434.194 1023.74 437.693 1037.57 437.693ZM1183.48 480.662C1174.37 480.662 1166.72 477.57 1160.53 471.385C1154.35 465.2 1151.25 457.55 1151.25 448.436C1151.25 439.484 1154.35 431.915 1160.53 425.73C1166.72 419.546 1174.37 416.453 1183.48 416.453C1192.43 416.453 1200 419.546 1206.19 425.73C1212.37 431.915 1215.46 439.484 1215.46 448.436C1215.46 457.55 1212.37 465.2 1206.19 471.385C1200 477.57 1192.43 480.662 1183.48 480.662ZM1306.2 481.639C1289.11 481.639 1274.13 478.383 1261.27 471.873C1248.42 465.363 1238.41 456.248 1231.24 444.529C1224.08 432.811 1220.5 419.301 1220.5 404.002V403.514C1220.5 388.54 1224.25 375.682 1231.73 364.939C1239.22 354.035 1250.04 345.408 1264.2 339.061C1278.53 332.713 1295.78 328.969 1315.96 327.83L1413.13 321.971V359.08L1323.04 364.695C1307.25 365.672 1295.05 369.497 1286.42 376.17C1277.96 382.68 1273.72 391.388 1273.72 402.293V402.781C1273.72 414.012 1277.96 422.882 1286.42 429.393C1295.05 435.903 1306.44 439.158 1320.6 439.158C1332.97 439.158 1344.04 436.635 1353.8 431.59C1363.73 426.544 1371.54 419.627 1377.24 410.838C1382.94 401.886 1385.79 391.876 1385.79 380.809V304.393C1385.79 290.232 1381.39 279.165 1372.6 271.189C1363.81 263.051 1351.2 258.982 1334.76 258.982C1319.62 258.982 1307.42 262.238 1298.14 268.748C1289.02 275.258 1283.33 283.641 1281.05 293.895L1280.56 296.092H1230.76L1231 293.406C1232.3 278.595 1237.27 265.33 1245.89 253.611C1254.52 241.73 1266.48 232.371 1281.78 225.535C1297.08 218.699 1315.23 215.281 1336.22 215.281C1357.22 215.281 1375.37 218.781 1390.67 225.779C1405.97 232.778 1417.85 242.625 1426.31 255.32C1434.78 268.016 1439.01 282.908 1439.01 299.998V477H1385.79V436.473H1384.81C1379.76 445.75 1373.25 453.807 1365.28 460.643C1357.3 467.316 1348.27 472.524 1338.18 476.268C1328.25 479.848 1317.59 481.639 1306.2 481.639ZM1454.79 562.449V220.164H1508.01V264.109H1509.23C1514.28 254.018 1520.71 245.311 1528.52 237.986C1536.49 230.662 1545.61 225.047 1555.86 221.141C1566.12 217.234 1577.35 215.281 1589.55 215.281C1611.36 215.281 1630.33 220.734 1646.44 231.639C1662.55 242.381 1675 257.762 1683.79 277.781C1692.58 297.638 1696.98 321.238 1696.98 348.582V348.826C1696.98 376.17 1692.5 399.77 1683.55 419.627C1674.76 439.484 1662.39 454.865 1646.44 465.77C1630.49 476.674 1611.77 482.127 1590.29 482.127C1578.24 482.127 1566.93 480.174 1556.35 476.268C1545.93 472.361 1536.74 466.827 1528.76 459.666C1520.79 452.342 1514.2 443.715 1508.99 433.787H1508.01V562.449H1454.79ZM1575.64 436.473C1589.47 436.473 1601.44 432.973 1611.53 425.975C1621.62 418.813 1629.35 408.641 1634.72 395.457C1640.09 382.273 1642.78 366.73 1642.78 348.826V348.582C1642.78 330.353 1640.09 314.646 1634.72 301.463C1629.35 288.279 1621.62 278.188 1611.53 271.189C1601.44 264.191 1589.47 260.691 1575.64 260.691C1562.29 260.691 1550.49 264.354 1540.24 271.678C1529.98 278.839 1521.93 289.012 1516.07 302.195C1510.37 315.216 1507.52 330.678 1507.52 348.582V348.826C1507.52 366.567 1510.45 382.029 1516.31 395.213C1522.17 408.234 1530.15 418.406 1540.24 425.73C1550.49 432.892 1562.29 436.473 1575.64 436.473ZM1702.5 562.449V220.164H1755.73V264.109H1756.95C1761.99 254.018 1768.42 245.311 1776.23 237.986C1784.21 230.662 1793.32 225.047 1803.58 221.141C1813.83 217.234 1825.06 215.281 1837.27 215.281C1859.08 215.281 1878.04 220.734 1894.15 231.639C1910.27 242.381 1922.72 257.762 1931.51 277.781C1940.3 297.638 1944.69 321.238 1944.69 348.582V348.826C1944.69 376.17 1940.22 399.77 1931.26 419.627C1922.47 439.484 1910.1 454.865 1894.15 465.77C1878.2 476.674 1859.49 482.127 1838 482.127C1825.96 482.127 1814.65 480.174 1804.07 476.268C1793.65 472.361 1784.45 466.827 1776.48 459.666C1768.5 452.342 1761.91 443.715 1756.7 433.787H1755.73V562.449H1702.5ZM1823.35 436.473C1837.19 436.473 1849.15 432.973 1859.24 425.975C1869.33 418.813 1877.06 408.641 1882.44 395.457C1887.81 382.273 1890.49 366.73 1890.49 348.826V348.582C1890.49 330.353 1887.81 314.646 1882.44 301.463C1877.06 288.279 1869.33 278.188 1859.24 271.189C1849.15 264.191 1837.19 260.691 1823.35 260.691C1810.01 260.691 1798.21 264.354 1787.95 271.678C1777.7 278.839 1769.64 289.012 1763.78 302.195C1758.09 315.216 1755.24 330.678 1755.24 348.582V348.826C1755.24 366.567 1758.17 382.029 1764.03 395.213C1769.89 408.234 1777.86 418.406 1787.95 425.73C1798.21 432.892 1810.01 436.473 1823.35 436.473Z" fill="#E2E2E2"/>
<path d="M1600.4 185.8C1599.07 185.8 1597.93 185.333 1597 184.4C1594.2 181.6 1591.13 177.6 1587.8 172.4C1584.6 167.2 1581.4 161.267 1578.2 154.6C1575 147.933 1572.07 140.867 1569.4 133.4C1566.87 125.8 1564.8 118.267 1563.2 110.8C1561.73 103.2 1561 96 1561 89.2C1561 80.6667 1562.13 72.1333 1564.4 63.6C1566.67 55.0667 1569.6 47 1573.2 39.4C1576.8 31.6667 1580.6 24.8 1584.6 18.8C1588.73 12.6667 1592.6 7.79999 1596.2 4.2C1596.87 3.53332 1597.67 2.99999 1598.6 2.6C1599.67 2.19999 1600.67 1.99999 1601.6 1.99999C1602.27 1.99999 1603.13 2.33332 1604.2 2.99999C1605.4 3.53332 1606 4.26666 1606 5.2C1606 5.33333 1605.8 5.66666 1605.4 6.2C1605 6.73333 1604.6 7.33333 1604.2 8C1603.8 8.53333 1603.53 8.86667 1603.4 9C1599.4 13.6667 1595.4 19.9333 1591.4 27.8C1587.4 35.6667 1584.07 44.6667 1581.4 54.8C1578.87 64.8 1577.6 75.4667 1577.6 86.8C1577.6 95.3333 1578.33 104.2 1579.8 113.4C1581.27 122.467 1583.2 131.267 1585.6 139.8C1588 148.2 1590.67 155.667 1593.6 162.2C1596.67 168.867 1599.73 174 1602.8 177.6C1602.93 177.733 1603.2 178.067 1603.6 178.6C1604.13 179.133 1604.6 179.667 1605 180.2C1605.53 180.867 1605.8 181.267 1605.8 181.4C1605.8 182.733 1605.2 183.8 1604 184.6C1602.93 185.4 1601.73 185.8 1600.4 185.8ZM1657.89 145.8C1654.95 145.8 1652.02 145.533 1649.09 145C1646.15 144.467 1643.35 143.867 1640.69 143.2C1637.75 142.4 1635.15 141.667 1632.89 141C1630.75 140.333 1629.35 140 1628.69 140C1627.89 140 1627.09 140.267 1626.29 140.8C1625.62 141.333 1624.95 141.933 1624.29 142.6C1623.62 143.267 1623.02 143.6 1622.49 143.6C1621.95 143.6 1621.35 143.4 1620.69 143C1620.02 142.467 1619.69 141.867 1619.69 141.2C1619.69 140 1619.89 137.933 1620.29 135C1620.82 132.067 1621.09 129.333 1621.09 126.8V29.8C1621.09 26.3333 1620.22 23.3333 1618.49 20.8C1616.75 18.2667 1614.55 16.4 1611.89 15.2C1611.35 14.9333 1610.75 14.6 1610.09 14.2C1609.55 13.6667 1609.29 13 1609.29 12.2C1609.29 11.5333 1609.55 11.0667 1610.09 10.8C1610.62 10.5333 1611.15 10.3333 1611.69 10.2C1613.42 9.79999 1615.75 9.06666 1618.69 8C1621.75 6.93333 1624.62 5.86666 1627.29 4.79999C1629.95 3.73332 1631.75 2.99999 1632.69 2.6C1633.49 2.19999 1634.09 1.99999 1634.49 1.99999C1634.75 1.99999 1635.02 2.13333 1635.29 2.4C1635.55 2.66666 1635.69 2.99999 1635.69 3.4C1635.69 3.93333 1635.55 6.2 1635.29 10.2C1635.15 14.0667 1635.09 18.8 1635.09 24.4V65.4C1635.09 67.9333 1635.22 69.6667 1635.49 70.6C1635.75 71.4 1636.22 71.8667 1636.89 72C1641.02 68.5333 1645.82 65.7333 1651.29 63.6C1656.75 61.3333 1661.69 60.2 1666.09 60.2C1672.89 60.2 1678.95 61.9333 1684.29 65.4C1689.75 68.8667 1694.09 73.6 1697.29 79.6C1700.49 85.4667 1702.09 92.1333 1702.09 99.6C1702.09 108.667 1700.22 116.733 1696.49 123.8C1692.75 130.733 1687.55 136.133 1680.89 140C1674.35 143.867 1666.69 145.8 1657.89 145.8ZM1662.49 139.6C1667.55 139.6 1671.89 138.067 1675.49 135C1679.22 131.8 1682.09 127.533 1684.09 122.2C1686.09 116.733 1687.09 110.667 1687.09 104C1687.09 98.8 1686.09 93.4667 1684.09 88C1682.22 82.5333 1679.22 77.9333 1675.09 74.2C1671.09 70.4667 1665.89 68.6 1659.49 68.6C1654.15 68.6 1649.49 69.4667 1645.49 71.2C1641.49 72.9333 1638.02 75.1333 1635.09 77.8V116.6C1635.09 121.267 1636.35 125.333 1638.89 128.8C1641.55 132.267 1644.95 134.933 1649.09 136.8C1653.35 138.667 1657.82 139.6 1662.49 139.6ZM1741.62 146C1734.28 146 1727.88 144.2 1722.42 140.6C1716.95 137 1712.68 131.933 1709.62 125.4C1706.55 118.733 1705.02 111.067 1705.02 102.4C1705.02 94.6667 1706.75 87.6667 1710.22 81.4C1713.82 75 1718.55 69.8667 1724.42 66C1730.28 62.1333 1736.68 60.2 1743.62 60.2C1748.95 60.2 1753.68 61.2667 1757.82 63.4C1761.95 65.5333 1765.15 68.5333 1767.42 72.4C1769.82 76.1333 1771.02 80.4667 1771.02 85.4C1771.02 89.5333 1769.02 91.6 1765.02 91.6H1722.82C1720.95 91.6 1719.62 92.1333 1718.82 93.2C1718.15 94.1333 1717.82 96.0667 1717.82 99C1717.82 105.4 1719.22 111.267 1722.02 116.6C1724.82 121.8 1728.55 126 1733.22 129.2C1737.88 132.267 1743.02 133.8 1748.62 133.8C1752.62 133.8 1756.22 133.067 1759.42 131.6C1762.75 130 1765.68 127.733 1768.22 124.8C1768.75 124.133 1769.15 123.733 1769.42 123.6C1769.68 123.333 1770.02 123.2 1770.42 123.2C1771.48 123.2 1772.02 123.867 1772.02 125.2C1772.02 127.733 1770.82 130.533 1768.42 133.6C1766.42 136.133 1764.02 138.333 1761.22 140.2C1758.42 142.067 1755.35 143.467 1752.02 144.4C1748.68 145.467 1745.22 146 1741.62 146ZM1723.22 85.4H1741.42C1744.62 85.4 1747.35 85.3333 1749.62 85.2C1751.88 85.0667 1754.08 84.8 1756.22 84.4C1756.88 84.2667 1757.28 83.8667 1757.42 83.2C1757.68 82.4 1757.82 81.3333 1757.82 80C1757.82 76.1333 1756.08 72.8667 1752.62 70.2C1749.28 67.4 1745.28 66 1740.62 66C1737.55 66 1734.48 66.9333 1731.42 68.8C1728.35 70.5333 1725.82 72.7333 1723.82 75.4C1721.82 78.0667 1720.82 80.7333 1720.82 83.4C1720.82 84.7333 1721.62 85.4 1723.22 85.4ZM1804.75 145.8C1798.21 145.8 1793.08 143.8 1789.35 139.8C1785.75 135.8 1783.95 129.867 1783.95 122V75.6C1783.95 74.5333 1783.55 73.8 1782.75 73.4C1781.95 72.8667 1780.21 72.6 1777.55 72.6H1776.35C1775.68 72.6 1775.08 72.2 1774.55 71.4C1774.15 70.4667 1773.95 69.5333 1773.95 68.6C1773.95 68.3333 1774.15 67.9333 1774.55 67.4C1774.95 66.8667 1775.21 66.5333 1775.35 66.4C1778.01 64.5333 1780.41 62.6667 1782.55 60.8C1784.81 58.9333 1786.81 57.1333 1788.55 55.4C1790.41 53.5333 1791.95 51.8667 1793.15 50.4C1793.81 49.7333 1794.35 49.2 1794.75 48.8C1795.28 48.2667 1795.88 48 1796.55 48C1797.21 48 1797.81 48.1333 1798.35 48.4C1799.01 48.6667 1799.28 49.2667 1799.15 50.2L1798.15 59.2C1798.01 60.6667 1798.35 61.6667 1799.15 62.2C1799.95 62.7333 1801.21 63 1802.95 63H1825.75C1826.28 63 1826.75 63.4667 1827.15 64.4C1827.55 65.2 1827.75 66.2 1827.75 67.4C1827.75 68.6 1827.55 69.8 1827.15 71C1826.75 72.0667 1826.28 72.6 1825.75 72.6H1805.95C1802.61 72.6 1800.41 72.8667 1799.35 73.4C1798.41 73.9333 1797.95 75.5333 1797.95 78.2V117.6C1797.95 122.933 1799.08 127.133 1801.35 130.2C1803.61 133.267 1806.88 134.8 1811.15 134.8C1815.01 134.8 1818.01 134.533 1820.15 134C1822.28 133.333 1824.21 132.4 1825.95 131.2C1826.21 130.933 1826.48 130.8 1826.75 130.8C1827.28 130.8 1827.61 131.133 1827.75 131.8C1828.01 132.333 1828.15 132.933 1828.15 133.6C1828.15 134.267 1827.01 135.6 1824.75 137.6C1822.61 139.6 1819.75 141.467 1816.15 143.2C1812.68 144.933 1808.88 145.8 1804.75 145.8ZM1843.24 145.8C1840.84 145.8 1838.37 144.867 1835.84 143C1833.44 141.133 1831.37 138.867 1829.64 136.2C1828.04 133.533 1827.24 131 1827.24 128.6C1827.24 124.333 1828.37 121 1830.64 118.6C1832.9 116.2 1836.5 114 1841.44 112L1861.84 103.6C1864.5 102.533 1866.04 101.6 1866.44 100.8C1866.97 100 1867.3 98.2667 1867.44 95.6L1867.84 82.8C1867.97 79.3333 1866.97 76.3333 1864.84 73.8C1862.84 71.2667 1859.9 70 1856.04 70C1854.04 70 1852.04 70.3333 1850.04 71C1848.04 71.6667 1846.37 72.5333 1845.04 73.6C1844.24 74.1333 1843.7 74.9333 1843.44 76C1843.17 77.0667 1843.04 78.2 1843.04 79.4C1843.04 79.9333 1843.04 80.5333 1843.04 81.2C1843.17 81.8667 1843.24 82.4667 1843.24 83C1843.24 83.6667 1842.37 84.6 1840.64 85.8C1839.04 86.8667 1837.17 87.8667 1835.04 88.8C1833.04 89.6 1831.37 90 1830.04 90C1829.37 90 1828.84 89.8667 1828.44 89.6C1828.04 89.2 1827.84 88.7333 1827.84 88.2C1827.84 86.0667 1828.5 83.8 1829.84 81.4C1831.3 78.8667 1833.3 76.5333 1835.84 74.4C1838.9 71.6 1842.24 69.1333 1845.84 67C1849.44 64.8667 1852.97 63.2 1856.44 62C1859.9 60.8 1862.97 60.2 1865.64 60.2C1870.44 60.2 1874.37 61.9333 1877.44 65.4C1880.64 68.7333 1882.17 72.9333 1882.04 78L1881.04 126C1880.9 128.8 1881.5 131.067 1882.84 132.8C1884.3 134.533 1886.1 135.4 1888.24 135.4C1891.57 135.4 1894.04 134.667 1895.64 133.2C1896.3 132.533 1896.84 132.2 1897.24 132.2C1897.9 132.2 1898.44 132.4 1898.84 132.8C1899.24 133.2 1899.44 133.733 1899.44 134.4C1899.44 135.867 1898.7 137.333 1897.24 138.8C1895.1 140.933 1892.77 142.6 1890.24 143.8C1887.84 145.133 1885.57 145.8 1883.44 145.8C1877.3 145.8 1872.44 142.333 1868.84 135.4H1868.24C1863.84 139 1859.64 141.6 1855.64 143.2C1851.64 144.933 1847.5 145.8 1843.24 145.8ZM1852.64 136.2C1855.3 136.2 1857.57 135.8 1859.44 135C1861.3 134.067 1862.97 132.867 1864.44 131.4C1865.1 130.733 1865.64 129.867 1866.04 128.8C1866.57 127.6 1866.9 125.733 1867.04 123.2L1867.44 113.4C1867.57 111.933 1867.5 110.867 1867.24 110.2C1866.97 109.533 1866.44 109.2 1865.64 109.2C1865.37 109.2 1864.9 109.267 1864.24 109.4C1863.57 109.533 1862.7 109.8 1861.64 110.2C1854.57 112.733 1849.64 115.4 1846.84 118.2C1844.17 120.867 1842.84 123.333 1842.84 125.6C1842.84 129.067 1843.84 131.733 1845.84 133.6C1847.97 135.333 1850.24 136.2 1852.64 136.2ZM1905.32 185.8C1903.99 185.8 1902.72 185.4 1901.52 184.6C1900.45 183.8 1899.92 182.733 1899.92 181.4C1899.92 181.267 1900.12 180.867 1900.52 180.2C1901.05 179.667 1901.59 179.133 1902.12 178.6C1902.65 178.067 1902.92 177.733 1902.92 177.6C1905.99 174 1908.99 168.867 1911.92 162.2C1914.99 155.667 1917.72 148.2 1920.12 139.8C1922.52 131.267 1924.45 122.467 1925.92 113.4C1927.39 104.2 1928.12 95.3333 1928.12 86.8C1928.12 75.4667 1926.79 64.8 1924.12 54.8C1921.59 44.6667 1918.32 35.6667 1914.32 27.8C1910.45 19.9333 1906.45 13.6667 1902.32 9C1902.19 8.86667 1901.92 8.53333 1901.52 8C1901.12 7.33333 1900.72 6.73333 1900.32 6.2C1899.92 5.66666 1899.72 5.33333 1899.72 5.2C1899.72 4.26666 1900.25 3.53332 1901.32 2.99999C1902.52 2.33332 1903.45 1.99999 1904.12 1.99999C1905.19 1.99999 1906.19 2.19999 1907.12 2.6C1908.19 2.99999 1908.99 3.53332 1909.52 4.2C1913.12 7.79999 1916.92 12.6667 1920.92 18.8C1925.05 24.8 1928.92 31.6667 1932.52 39.4C1936.12 47 1939.05 55.0667 1941.32 63.6C1943.59 72.1333 1944.72 80.6667 1944.72 89.2C1944.72 96 1943.92 103.2 1942.32 110.8C1940.85 118.267 1938.79 125.8 1936.12 133.4C1933.59 140.867 1930.72 147.933 1927.52 154.6C1924.32 161.267 1921.05 167.2 1917.72 172.4C1914.52 177.6 1911.52 181.6 1908.72 184.4C1907.79 185.333 1906.65 185.8 1905.32 185.8Z" fill="#E2E2E2"/>
</g>
<defs>
<clipPath id="clip0_451_15">
<rect width="1946" height="563" fill="white"/>
</clipPath>
</defs>
</svg>
