<svg width="1094" height="357" viewBox="0 0 1094 357" fill="none" xmlns="http://www.w3.org/2000/svg">
<path d="M76.4492 312.281C61.6836 312.281 48.7409 310.048 37.6211 305.582C26.5924 301.116 17.8424 294.736 11.3711 286.441C4.89974 278.056 1.25391 268.076 0.433594 256.5L0.296875 254.449H30.2383L30.5117 256.227C31.4232 262.242 33.9297 267.483 38.0312 271.949C42.224 276.324 47.6927 279.697 54.4375 282.066C61.1823 284.436 68.9297 285.621 77.6797 285.621C86.5208 285.621 94.1315 284.391 100.512 281.93C106.892 279.469 111.814 275.96 115.277 271.402C118.832 266.845 120.609 261.513 120.609 255.406V255.27C120.609 247.34 117.738 241.051 111.996 236.402C106.345 231.663 96.957 227.88 83.832 225.055L62.3672 220.543C43.0443 216.441 28.6432 209.879 19.1641 200.855C9.6849 191.741 4.94531 179.892 4.94531 165.309V165.172C5.03646 153.961 8.13542 144.117 14.2422 135.641C20.349 127.073 28.7799 120.419 39.5352 115.68C50.2904 110.849 62.6406 108.434 76.5859 108.434C90.2578 108.434 102.335 110.758 112.816 115.406C123.298 120.055 131.592 126.572 137.699 134.957C143.806 143.251 147.224 152.958 147.953 164.078L148.09 166.266H118.148L117.875 164.488C117.055 158.29 114.776 153.004 111.039 148.629C107.393 144.254 102.608 140.927 96.6836 138.648C90.7591 136.279 83.8776 135.094 76.0391 135.094C67.9271 135.094 60.8633 136.324 54.8477 138.785C48.832 141.155 44.1836 144.482 40.9023 148.766C37.6211 153.049 35.9805 158.108 35.9805 163.941V164.078C35.9805 171.461 38.8971 177.477 44.7305 182.125C50.5638 186.773 59.6328 190.419 71.9375 193.062L93.4023 197.711C106.983 200.536 118.057 204.365 126.625 209.195C135.193 214.026 141.527 220.042 145.629 227.242C149.73 234.443 151.781 243.147 151.781 253.355V253.492C151.781 265.523 148.728 275.96 142.621 284.801C136.605 293.551 127.947 300.341 116.645 305.172C105.434 309.911 92.0352 312.281 76.4492 312.281ZM198.353 311.598C188.783 311.598 180.397 309.775 173.197 306.129C165.996 302.483 160.391 297.379 156.38 290.816C152.37 284.254 150.365 276.689 150.365 268.121V267.848C150.365 259.462 152.461 252.262 156.654 246.246C160.847 240.139 166.908 235.309 174.837 231.754C182.858 228.199 192.52 226.103 203.822 225.465L258.236 222.184V242.965L207.787 246.109C198.946 246.656 192.11 248.798 187.279 252.535C182.539 256.181 180.17 261.057 180.17 267.164V267.438C180.17 273.727 182.539 278.694 187.279 282.34C192.11 285.986 198.49 287.809 206.42 287.809C213.347 287.809 219.545 286.396 225.013 283.57C230.573 280.745 234.948 276.871 238.138 271.949C241.328 266.936 242.923 261.331 242.923 255.133V212.34C242.923 204.41 240.462 198.212 235.541 193.746C230.619 189.189 223.555 186.91 214.349 186.91C205.873 186.91 199.037 188.733 193.841 192.379C188.737 196.025 185.547 200.719 184.271 206.461L183.998 207.691H156.107L156.244 206.188C156.973 197.893 159.753 190.465 164.584 183.902C169.414 177.249 176.114 172.008 184.681 168.18C193.249 164.352 203.412 162.438 215.17 162.438C226.927 162.438 237.09 164.397 245.658 168.316C254.226 172.236 260.879 177.75 265.619 184.859C270.358 191.969 272.728 200.309 272.728 209.879V309H242.923V286.305H242.377C239.551 291.5 235.905 296.012 231.439 299.84C226.973 303.577 221.914 306.493 216.263 308.59C210.703 310.595 204.733 311.598 198.353 311.598ZM282.796 309V165.172H312.601V309H282.796ZM297.698 143.023C292.959 143.023 288.903 141.383 285.53 138.102C282.158 134.729 280.472 130.719 280.472 126.07C280.472 121.24 282.158 117.184 285.53 113.902C288.903 110.621 292.959 108.98 297.698 108.98C302.529 108.98 306.585 110.621 309.866 113.902C313.239 117.184 314.925 121.24 314.925 126.07C314.925 130.719 313.239 134.729 309.866 138.102C306.585 141.383 302.529 143.023 297.698 143.023ZM323.216 309V165.172H353.02V186.91H353.567C357.395 179.618 363.001 173.74 370.384 169.273C377.766 164.716 386.881 162.438 397.727 162.438C413.496 162.438 425.709 167.223 434.368 176.793C443.027 186.272 447.356 199.306 447.356 215.895V309H417.688V221.637C417.688 210.79 415.136 202.451 410.032 196.617C405.019 190.784 397.408 187.867 387.2 187.867C380.273 187.867 374.212 189.417 369.016 192.516C363.912 195.615 359.947 199.944 357.122 205.504C354.388 211.064 353.02 217.626 353.02 225.191V309H323.216ZM506.916 311.871C492.698 311.871 482.079 308.681 475.061 302.301C468.134 295.829 464.67 285.393 464.67 270.992V188.688H444.026V165.172H464.67V127.711H495.022V165.172H521.955V188.688H495.022V269.352C495.022 276.643 496.617 281.656 499.807 284.391C502.997 287.034 507.737 288.355 514.026 288.355C515.575 288.355 516.988 288.31 518.264 288.219C519.631 288.036 520.862 287.9 521.955 287.809V310.641C520.224 310.914 518.036 311.188 515.393 311.461C512.75 311.734 509.924 311.871 506.916 311.871ZM585.344 311.871C571.581 311.871 559.549 308.863 549.25 302.848C539.042 296.741 531.112 288.128 525.461 277.008C519.81 265.797 516.984 252.49 516.984 237.086V236.812C516.984 221.5 519.81 208.284 525.461 197.164C531.203 186.044 539.178 177.477 549.387 171.461C559.686 165.445 571.626 162.438 585.207 162.438C598.879 162.438 610.819 165.445 621.027 171.461C631.327 177.385 639.302 185.908 644.953 197.027C650.695 208.147 653.566 221.409 653.566 236.812V237.086C653.566 252.581 650.695 265.888 644.953 277.008C639.302 288.128 631.372 296.741 621.164 302.848C610.956 308.863 599.016 311.871 585.344 311.871ZM585.48 286.988C593.137 286.988 599.79 285.029 605.441 281.109C611.092 277.19 615.467 271.539 618.566 264.156C621.665 256.682 623.215 247.659 623.215 237.086V236.812C623.215 226.331 621.665 217.398 618.566 210.016C615.467 202.542 611.047 196.891 605.305 193.062C599.562 189.143 592.863 187.184 585.207 187.184C577.642 187.184 570.988 189.143 565.246 193.062C559.595 196.982 555.174 202.633 551.984 210.016C548.794 217.398 547.199 226.331 547.199 236.812V237.086C547.199 247.659 548.749 256.682 551.848 264.156C555.038 271.539 559.504 277.19 565.246 281.109C570.988 285.029 577.733 286.988 585.48 286.988ZM667.189 311.051C662.085 311.051 657.801 309.319 654.338 305.855C650.874 302.392 649.142 298.108 649.142 293.004C649.142 287.991 650.874 283.753 654.338 280.289C657.801 276.826 662.085 275.094 667.189 275.094C672.202 275.094 676.44 276.826 679.904 280.289C683.367 283.753 685.099 287.991 685.099 293.004C685.099 298.108 683.367 302.392 679.904 305.855C676.44 309.319 672.202 311.051 667.189 311.051ZM735.909 311.598C726.339 311.598 717.954 309.775 710.753 306.129C703.553 302.483 697.947 297.379 693.937 290.816C689.926 284.254 687.921 276.689 687.921 268.121V267.848C687.921 259.462 690.017 252.262 694.21 246.246C698.403 240.139 704.464 235.309 712.394 231.754C720.415 228.199 730.076 226.103 741.378 225.465L795.792 222.184V242.965L745.343 246.109C736.502 246.656 729.666 248.798 724.835 252.535C720.096 256.181 717.726 261.057 717.726 267.164V267.438C717.726 273.727 720.096 278.694 724.835 282.34C729.666 285.986 736.046 287.809 743.976 287.809C750.903 287.809 757.101 286.396 762.57 283.57C768.129 280.745 772.504 276.871 775.695 271.949C778.885 266.936 780.48 261.331 780.48 255.133V212.34C780.48 204.41 778.019 198.212 773.097 193.746C768.175 189.189 761.111 186.91 751.905 186.91C743.429 186.91 736.593 188.733 731.398 192.379C726.293 196.025 723.103 200.719 721.827 206.461L721.554 207.691H693.663L693.8 206.188C694.529 197.893 697.309 190.465 702.14 183.902C706.971 177.249 713.67 172.008 722.237 168.18C730.805 164.352 740.968 162.438 752.726 162.438C764.484 162.438 774.646 164.397 783.214 168.316C791.782 172.236 798.435 177.75 803.175 184.859C807.915 191.969 810.284 200.309 810.284 209.879V309H780.48V286.305H779.933C777.107 291.5 773.461 296.012 768.995 299.84C764.529 303.577 759.471 306.493 753.82 308.59C748.26 310.595 742.29 311.598 735.909 311.598ZM819.122 356.852V165.172H848.927V189.781H849.61C852.436 184.13 856.036 179.254 860.411 175.152C864.877 171.051 869.981 167.906 875.723 165.719C881.466 163.531 887.755 162.438 894.591 162.438C906.804 162.438 917.423 165.491 926.446 171.598C935.47 177.613 942.442 186.227 947.364 197.438C952.286 208.557 954.747 221.773 954.747 237.086V237.223C954.747 252.535 952.24 265.751 947.227 276.871C942.305 287.991 935.378 296.604 926.446 302.711C917.514 308.818 907.032 311.871 895.001 311.871C888.256 311.871 881.921 310.777 875.997 308.59C870.164 306.402 865.014 303.303 860.548 299.293C856.082 295.191 852.39 290.361 849.473 284.801H848.927V356.852H819.122ZM886.798 286.305C894.545 286.305 901.244 284.345 906.895 280.426C912.546 276.415 916.876 270.719 919.884 263.336C922.891 255.953 924.395 247.249 924.395 237.223V237.086C924.395 226.878 922.891 218.082 919.884 210.699C916.876 203.316 912.546 197.665 906.895 193.746C901.244 189.827 894.545 187.867 886.798 187.867C879.324 187.867 872.716 189.918 866.973 194.02C861.231 198.03 856.72 203.727 853.438 211.109C850.248 218.401 848.653 227.06 848.653 237.086V237.223C848.653 247.158 850.294 255.816 853.575 263.199C856.856 270.491 861.322 276.188 866.973 280.289C872.716 284.299 879.324 286.305 886.798 286.305ZM957.842 356.852V165.172H987.647V189.781H988.33C991.156 184.13 994.756 179.254 999.131 175.152C1003.6 171.051 1008.7 167.906 1014.44 165.719C1020.19 163.531 1026.47 162.438 1033.31 162.438C1045.52 162.438 1056.14 165.491 1065.17 171.598C1074.19 177.613 1081.16 186.227 1086.08 197.438C1091.01 208.557 1093.47 221.773 1093.47 237.086V237.223C1093.47 252.535 1090.96 265.751 1085.95 276.871C1081.03 287.991 1074.1 296.604 1065.17 302.711C1056.23 308.818 1045.75 311.871 1033.72 311.871C1026.98 311.871 1020.64 310.777 1014.72 308.59C1008.88 306.402 1003.73 303.303 999.268 299.293C994.802 295.191 991.11 290.361 988.194 284.801H987.647V356.852H957.842ZM1025.52 286.305C1033.27 286.305 1039.96 284.345 1045.62 280.426C1051.27 276.415 1055.6 270.719 1058.6 263.336C1061.61 255.953 1063.12 247.249 1063.12 237.223V237.086C1063.12 226.878 1061.61 218.082 1058.6 210.699C1055.6 203.316 1051.27 197.665 1045.62 193.746C1039.96 189.827 1033.27 187.867 1025.52 187.867C1018.04 187.867 1011.44 189.918 1005.69 194.02C999.952 198.03 995.44 203.727 992.159 211.109C988.968 218.401 987.373 227.06 987.373 237.086V237.223C987.373 247.158 989.014 255.816 992.295 263.199C995.577 270.491 1000.04 276.188 1005.69 280.289C1011.44 284.299 1018.04 286.305 1025.52 286.305Z" fill="#D9D9D9"/>
<path d="M796.18 128.96C795.247 128.96 794.453 128.633 793.8 127.98C791.84 126.02 789.693 123.22 787.36 119.58C785.12 115.94 782.88 111.787 780.64 107.12C778.4 102.453 776.347 97.5067 774.48 92.28C772.707 86.96 771.26 81.6867 770.14 76.46C769.113 71.14 768.6 66.1 768.6 61.34C768.6 55.3667 769.393 49.3933 770.98 43.42C772.567 37.4467 774.62 31.8 777.14 26.48C779.66 21.0667 782.32 16.26 785.12 12.06C788.013 7.76666 790.72 4.35999 793.24 1.84C793.707 1.37333 794.267 0.999993 794.92 0.719997C795.667 0.439995 796.367 0.299994 797.02 0.299994C797.487 0.299994 798.093 0.533327 798.84 0.999993C799.68 1.37333 800.1 1.88666 800.1 2.54C800.1 2.63333 799.96 2.86666 799.68 3.24C799.4 3.61333 799.12 4.03333 798.84 4.5C798.56 4.87333 798.373 5.10667 798.28 5.2C795.48 8.46666 792.68 12.8533 789.88 18.36C787.08 23.8667 784.747 30.1667 782.88 37.26C781.107 44.26 780.22 51.7267 780.22 59.66C780.22 65.6333 780.733 71.84 781.76 78.28C782.787 84.6267 784.14 90.7867 785.82 96.76C787.5 102.64 789.367 107.867 791.42 112.44C793.567 117.107 795.713 120.7 797.86 123.22C797.953 123.313 798.14 123.547 798.42 123.92C798.793 124.293 799.12 124.667 799.4 125.04C799.773 125.507 799.96 125.787 799.96 125.88C799.96 126.813 799.54 127.56 798.7 128.12C797.953 128.68 797.113 128.96 796.18 128.96ZM824.66 139.6C816.727 139.6 810.427 138.06 805.76 134.98C801.187 131.993 798.9 127.933 798.9 122.8C798.9 120.373 799.273 118.32 800.02 116.64C800.767 114.96 801.933 113.513 803.52 112.3C804.827 111.18 806.553 109.733 808.7 107.96C810.94 106.28 813.227 104.507 815.56 102.64L821.44 102.92C816.96 105.813 813.833 108.567 812.06 111.18C810.287 113.793 809.4 116.967 809.4 120.7C809.4 124.433 811.033 127.56 814.3 130.08C817.66 132.693 821.767 134 826.62 134C832.127 134 836.56 132.74 839.92 130.22C842.253 128.447 844.073 126.113 845.38 123.22C846.687 120.42 847.34 117.433 847.34 114.26C847.34 112.207 846.593 110.48 845.1 109.08C843.7 107.773 841.46 106.7 838.38 105.86C835.3 105.02 831.287 104.46 826.34 104.18C817.567 103.527 811.453 102.36 808 100.68C804.64 99 802.96 96.3867 802.96 92.84C802.96 91.9067 803.193 91.0667 803.66 90.32C804.22 89.48 805.06 88.5933 806.18 87.66C808.327 85.98 809.913 84.7667 810.94 84.02C811.967 83.18 812.713 82.48 813.18 81.92C813.74 81.36 814.253 80.66 814.72 79.82L819.48 82.2C817.427 82.9467 815.7 83.9733 814.3 85.28C812.9 86.4933 812.2 87.6133 812.2 88.64C812.2 89.9467 812.9 91.1133 814.3 92.14C815.7 93.0733 817.753 93.82 820.46 94.38C823.167 94.94 826.48 95.36 830.4 95.64C838.987 96.1067 845.38 97.5067 849.58 99.84C853.78 102.173 855.88 105.487 855.88 109.78C855.88 113.42 854.947 116.967 853.08 120.42C851.307 123.967 848.927 127.187 845.94 130.08C842.953 132.973 839.593 135.26 835.86 136.94C832.22 138.713 828.487 139.6 824.66 139.6ZM826.34 79.26C829.887 79.26 832.827 77.4867 835.16 73.94C837.493 70.3 838.66 65.82 838.66 60.5C838.66 57.7933 838.007 55.2733 836.7 52.94C835.487 50.5133 833.853 48.6 831.8 47.2C829.84 45.7067 827.693 44.96 825.36 44.96C823.213 44.96 821.16 45.7533 819.2 47.34C817.333 48.8333 815.793 50.7933 814.58 53.22C813.46 55.6467 812.9 58.3067 812.9 61.2C812.9 64.4667 813.507 67.5 814.72 70.3C815.933 73.0067 817.567 75.2 819.62 76.88C821.673 78.4667 823.913 79.26 826.34 79.26ZM825.5 84.16C821.673 84.16 818.033 83.18 814.58 81.22C811.127 79.26 808.28 76.6933 806.04 73.52C803.893 70.2533 802.82 66.7067 802.82 62.88C802.82 58.4933 803.94 54.6667 806.18 51.4C808.513 48.04 811.547 45.4267 815.28 43.56C819.013 41.6933 822.98 40.76 827.18 40.76C829.887 40.76 832.22 41.1333 834.18 41.88C836.233 42.5333 838.24 43.14 840.2 43.7C842.44 44.3533 844.213 44.7733 845.52 44.96C846.827 45.0533 848.18 45.1 849.58 45.1C850.7 45.1 852.1 45.0533 853.78 44.96C855.46 44.7733 856.627 44.68 857.28 44.68C858.493 44.68 859.1 45.38 859.1 46.78C859.1 47.62 858.633 48.5067 857.7 49.44C857.233 49.9067 856.86 50.14 856.58 50.14H852.8C850.28 50.14 848.88 50.5133 848.6 51.26C848.507 51.6333 848.367 52.1933 848.18 52.94C848.087 53.5933 847.993 54.34 847.9 55.18C847.807 56.02 847.76 56.86 847.76 57.7C847.76 62.46 846.733 66.8467 844.68 70.86C842.627 74.8733 839.92 78.0933 836.56 80.52C833.2 82.9467 829.513 84.16 825.5 84.16ZM855.26 99.42C854.327 99.42 853.627 99.28 853.16 99C852.693 98.8133 852.46 98.44 852.46 97.88C852.46 97.1333 852.74 96.6667 853.3 96.48C853.86 96.2 854.653 95.92 855.68 95.64C857.453 95.1733 858.76 94.52 859.6 93.68C860.533 92.7467 861 91.6267 861 90.32V60.22C861 57.7 860.627 55.5067 859.88 53.64C859.133 51.7733 857.593 50.6067 855.26 50.14C854.887 50.0467 854.56 49.8133 854.28 49.44C854 49.0667 853.86 48.6933 853.86 48.32C853.86 47.3867 854.28 46.8267 855.12 46.64C857.547 45.8933 860.067 44.82 862.68 43.42C865.387 41.9267 867.487 40.7133 868.98 39.78C869.54 39.4067 869.96 39.1733 870.24 39.08C870.613 38.8933 870.893 38.8 871.08 38.8C871.547 38.8 871.78 39.1267 871.78 39.78C871.78 40.06 871.733 40.76 871.64 41.88C871.64 43 871.593 44.3067 871.5 45.8C871.5 47.2933 871.453 48.7867 871.36 50.28C871.36 50.4667 871.453 50.56 871.64 50.56C873.133 48.6933 874.767 47.06 876.54 45.66C878.407 44.26 880.273 43.14 882.14 42.3C884.1 41.46 885.967 41.04 887.74 41.04C889.7 41.04 891.287 41.46 892.5 42.3C893.807 43.14 894.46 44.2133 894.46 45.52C894.46 46.4533 894.18 47.48 893.62 48.6C893.153 49.72 892.5 50.7 891.66 51.54C890.82 52.38 889.933 52.8 889 52.8C888.44 52.8 887.833 52.7067 887.18 52.52C886.527 52.24 885.827 51.9133 885.08 51.54C884.333 51.26 883.587 50.98 882.84 50.7C882.093 50.42 881.347 50.28 880.6 50.28C878.36 50.28 876.167 51.0733 874.02 52.66C871.967 54.2467 870.94 57.3733 870.94 62.04V90.32C870.94 91.5333 871.593 92.56 872.9 93.4C874.207 94.1467 876.027 94.8933 878.36 95.64C879.387 95.92 880.18 96.2 880.74 96.48C881.3 96.76 881.58 97.2267 881.58 97.88C881.58 98.9067 880.647 99.42 878.78 99.42C875.98 99.42 873.833 99.28 872.34 99C870.94 98.8133 869.027 98.72 866.6 98.72C865.013 98.72 863.707 98.7667 862.68 98.86C861.747 98.9533 860.72 99.0467 859.6 99.14C858.573 99.3267 857.127 99.42 855.26 99.42ZM891.518 99.42C890.678 99.42 889.978 99.28 889.418 99C888.951 98.8133 888.718 98.44 888.718 97.88C888.718 97.1333 889.044 96.62 889.698 96.34C890.444 96.06 891.191 95.8267 891.938 95.64C893.898 95.1733 895.391 94.6133 896.418 93.96C897.444 93.2133 897.958 92 897.958 90.32V59.94C897.958 57.42 897.491 55.18 896.558 53.22C895.718 51.26 894.084 50.0933 891.658 49.72C891.191 49.6267 890.818 49.44 890.538 49.16C890.351 48.88 890.258 48.46 890.258 47.9C890.258 46.8733 890.678 46.3133 891.518 46.22C895.251 45.38 898.331 44.26 900.758 42.86C903.184 41.3667 905.004 40.1533 906.218 39.22C907.058 38.5667 907.711 38.24 908.178 38.24C908.738 38.24 909.018 38.4733 909.018 38.94C909.018 39.6867 908.878 41.18 908.598 43.42C908.411 45.5667 908.224 47.9933 908.038 50.7C907.851 53.3133 907.758 55.6933 907.758 57.84V90.32C907.758 91.9067 908.271 93.0733 909.298 93.82C910.418 94.5667 911.911 95.1733 913.778 95.64C914.524 95.8267 915.224 96.06 915.878 96.34C916.624 96.62 916.998 97.1333 916.998 97.88C916.998 98.9067 916.064 99.42 914.198 99.42C912.424 99.42 910.978 99.3267 909.858 99.14C908.831 99.0467 907.804 98.9533 906.778 98.86C905.844 98.7667 904.538 98.72 902.858 98.72C901.271 98.72 899.964 98.7667 898.938 98.86C897.911 98.9533 896.884 99.0467 895.858 99.14C894.831 99.3267 893.384 99.42 891.518 99.42ZM902.718 26.76C900.758 26.76 899.078 26.1067 897.678 24.8C896.371 23.4 895.718 21.72 895.718 19.76C895.718 17.7067 896.371 16.0267 897.678 14.72C899.078 13.32 900.758 12.62 902.718 12.62C904.771 12.62 906.451 13.32 907.758 14.72C909.158 16.0267 909.858 17.7067 909.858 19.76C909.858 21.72 909.158 23.4 907.758 24.8C906.451 26.1067 904.771 26.76 902.718 26.76ZM930.034 100.96C927.141 100.96 924.434 100.493 921.914 99.56C919.394 98.72 917.248 97.5067 915.474 95.92C915.008 94.8933 914.634 93.1667 914.354 90.74C914.168 88.3133 914.028 86.3067 913.934 84.72C913.934 83.88 914.541 83.46 915.754 83.46C916.128 83.46 916.454 83.5533 916.734 83.74C917.108 83.8333 917.341 84.0667 917.434 84.44C918.648 89.0133 920.561 92.28 923.174 94.24C925.881 96.2 928.588 97.18 931.294 97.18C934.001 97.18 936.288 96.2933 938.154 94.52C940.114 92.6533 941.094 90.3667 941.094 87.66C941.094 85.14 940.254 82.9933 938.574 81.22C936.894 79.3533 933.954 77.1133 929.754 74.5C926.581 72.54 924.014 70.6733 922.054 68.9C920.094 67.1267 918.648 65.3067 917.714 63.44C916.874 61.5733 916.454 59.4733 916.454 57.14C916.454 54.1533 917.154 51.4467 918.554 49.02C919.954 46.5933 922.054 44.68 924.854 43.28C927.654 41.7867 931.154 41.04 935.354 41.04C938.154 41.04 940.488 41.32 942.354 41.88C944.221 42.44 945.621 43.0467 946.554 43.7C947.301 44.7267 947.908 46.36 948.374 48.6C948.934 50.7467 949.214 52.8 949.214 54.76C949.214 55.4133 948.748 55.74 947.814 55.74C947.254 55.74 946.694 55.6467 946.134 55.46C945.668 55.18 945.341 54.8533 945.154 54.48C943.941 51.4 942.401 49.0667 940.534 47.48C938.761 45.8 936.521 44.96 933.814 44.96C931.481 44.96 929.381 45.66 927.514 47.06C925.741 48.46 924.854 50.5133 924.854 53.22C924.854 55.3667 925.508 57.28 926.814 58.96C928.214 60.64 930.781 62.5533 934.514 64.7C939.928 67.78 943.941 70.6733 946.554 73.38C949.261 75.9933 950.614 79.4933 950.614 83.88C950.614 88.92 948.701 93.0267 944.874 96.2C941.048 99.3733 936.101 100.96 930.034 100.96ZM975.148 101.1C970.481 101.1 966.235 99.9333 962.408 97.6C958.675 95.1733 955.688 91.9067 953.448 87.8C951.301 83.6 950.228 78.9333 950.228 73.8C950.228 67.7333 951.535 62.2267 954.148 57.28C956.855 52.3333 960.448 48.4133 964.928 45.52C969.408 42.5333 974.355 41.04 979.768 41.04C985.835 41.04 991.155 42.6733 995.728 45.94C996.848 46.78 997.408 47.6667 997.408 48.6C997.408 49.3467 997.081 50.1867 996.428 51.12C995.775 52.0533 994.981 52.8467 994.048 53.5C993.115 54.06 992.228 54.34 991.388 54.34C990.921 54.34 990.455 54.2 989.988 53.92C989.521 53.5467 989.008 53.1733 988.448 52.8C986.395 51.2133 984.108 49.72 981.588 48.32C979.068 46.92 976.968 46.22 975.288 46.22C970.715 46.22 966.981 48.3667 964.088 52.66C961.288 56.86 959.888 62.4133 959.888 69.32C959.888 73.7067 960.821 77.6733 962.688 81.22C964.648 84.7667 967.215 87.5667 970.388 89.62C973.655 91.6733 977.248 92.7 981.168 92.7C983.875 92.7 986.208 92.28 988.168 91.44C990.128 90.5067 992.228 88.92 994.468 86.68C994.655 86.4933 994.888 86.3533 995.168 86.26C995.448 86.0733 995.681 85.98 995.868 85.98C996.895 85.98 997.408 86.6333 997.408 87.94C997.408 88.5 997.221 89.1533 996.848 89.9C996.568 90.5533 996.055 91.3467 995.308 92.28C993.815 94.1467 992.041 95.78 989.988 97.18C987.935 98.4867 985.648 99.4667 983.128 100.12C980.701 100.773 978.041 101.1 975.148 101.1ZM998 99.42C996.133 99.42 995.2 98.9067 995.2 97.88C995.2 97.04 996.273 96.2933 998.42 95.64C999.82 95.1733 1001.13 94.5667 1002.34 93.82C1003.65 93.0733 1004.35 91.7667 1004.44 89.9V19.76C1004.44 17.24 1004.02 15.0467 1003.18 13.18C1002.34 11.22 1000.71 10.0533 998.28 9.68C997.44 9.49333 997.02 8.84 997.02 7.72C997.02 6.88 997.393 6.32 998.14 6.04C999.447 5.57333 1000.99 5.06 1002.76 4.5C1004.63 3.93999 1006.54 3.33333 1008.5 2.68C1010.46 1.93333 1012.19 1.23333 1013.68 0.579999C1014.05 0.393329 1014.33 0.299994 1014.52 0.299994C1014.8 0.299994 1015.03 0.393329 1015.22 0.579999C1015.41 0.766663 1015.5 0.999996 1015.5 1.28C1015.5 1.84 1015.36 2.63333 1015.08 3.65999C1014.89 4.68666 1014.71 6.46 1014.52 8.98C1014.33 11.5 1014.24 15.28 1014.24 20.32V44.68C1014.24 46.1733 1014.29 47.2467 1014.38 47.9C1014.57 48.5533 1014.85 49.2067 1015.22 49.86C1016.71 48.74 1018.53 47.5267 1020.68 46.22C1022.92 44.82 1025.39 43.6067 1028.1 42.58C1030.81 41.5533 1033.61 41.04 1036.5 41.04C1041.07 41.04 1044.85 42.86 1047.84 46.5C1050.92 50.0467 1052.46 54.5733 1052.46 60.08V89.48C1052.46 91.3467 1053.07 92.7467 1054.28 93.68C1055.49 94.52 1056.8 95.1733 1058.2 95.64C1059.23 95.92 1060.02 96.2467 1060.58 96.62C1061.14 96.9 1061.42 97.32 1061.42 97.88C1061.42 98.9067 1060.49 99.42 1058.62 99.42C1056.75 99.42 1055.31 99.3267 1054.28 99.14C1053.35 99.0467 1052.41 98.9533 1051.48 98.86C1050.64 98.7667 1049.38 98.72 1047.7 98.72C1046.11 98.72 1044.85 98.7667 1043.92 98.86C1042.99 98.9533 1042.01 99.0467 1040.98 99.14C1040.05 99.3267 1038.65 99.42 1036.78 99.42C1034.91 99.42 1033.98 98.9067 1033.98 97.88C1033.98 97.2267 1034.26 96.8067 1034.82 96.62C1035.38 96.34 1036.17 96.0133 1037.2 95.64C1038.6 95.1733 1039.86 94.52 1040.98 93.68C1042.1 92.7467 1042.66 91.3467 1042.66 89.48V60.92C1042.66 58.5867 1041.96 56.4867 1040.56 54.62C1039.25 52.66 1037.62 51.12 1035.66 50C1033.7 48.88 1031.69 48.32 1029.64 48.32C1027.87 48.32 1025.81 48.6 1023.48 49.16C1021.15 49.6267 1019.33 50.3733 1018.02 51.4C1016.53 52.6133 1015.5 53.8733 1014.94 55.18C1014.47 56.4867 1014.24 58.5867 1014.24 61.48V89.9C1014.33 91.7667 1014.89 93.0733 1015.92 93.82C1017.04 94.5667 1018.3 95.1733 1019.7 95.64C1020.73 95.92 1021.47 96.2467 1021.94 96.62C1022.5 96.9 1022.78 97.32 1022.78 97.88C1022.78 98.9067 1021.85 99.42 1019.98 99.42C1018.11 99.42 1016.71 99.3267 1015.78 99.14C1014.85 99.0467 1013.96 98.9533 1013.12 98.86C1012.28 98.7667 1011.02 98.72 1009.34 98.72C1007.75 98.72 1006.45 98.7667 1005.42 98.86C1004.49 98.9533 1003.46 99.0467 1002.34 99.14C1001.31 99.3267 999.867 99.42 998 99.42ZM1065.71 128.96C1064.78 128.96 1063.89 128.68 1063.05 128.12C1062.3 127.56 1061.93 126.813 1061.93 125.88C1061.93 125.787 1062.07 125.507 1062.35 125.04C1062.72 124.667 1063.1 124.293 1063.47 123.92C1063.84 123.547 1064.03 123.313 1064.03 123.22C1066.18 120.7 1068.28 117.107 1070.33 112.44C1072.48 107.867 1074.39 102.64 1076.07 96.76C1077.75 90.7867 1079.1 84.6267 1080.13 78.28C1081.16 71.84 1081.67 65.6333 1081.67 59.66C1081.67 51.7267 1080.74 44.26 1078.87 37.26C1077.1 30.1667 1074.81 23.8667 1072.01 18.36C1069.3 12.8533 1066.5 8.46666 1063.61 5.2C1063.52 5.10667 1063.33 4.87333 1063.05 4.5C1062.77 4.03333 1062.49 3.61333 1062.21 3.24C1061.93 2.86666 1061.79 2.63333 1061.79 2.54C1061.79 1.88666 1062.16 1.37333 1062.91 0.999993C1063.75 0.533327 1064.4 0.299994 1064.87 0.299994C1065.62 0.299994 1066.32 0.439995 1066.97 0.719997C1067.72 0.999993 1068.28 1.37333 1068.65 1.84C1071.17 4.35999 1073.83 7.76666 1076.63 12.06C1079.52 16.26 1082.23 21.0667 1084.75 26.48C1087.27 31.8 1089.32 37.4467 1090.91 43.42C1092.5 49.3933 1093.29 55.3667 1093.29 61.34C1093.29 66.1 1092.73 71.14 1091.61 76.46C1090.58 81.6867 1089.14 86.96 1087.27 92.28C1085.5 97.5067 1083.49 102.453 1081.25 107.12C1079.01 111.787 1076.72 115.94 1074.39 119.58C1072.15 123.22 1070.05 126.02 1068.09 127.98C1067.44 128.633 1066.64 128.96 1065.71 128.96Z" fill="#D9D9D9"/>
</svg>
