<svg width="1094" height="309" viewBox="0 0 1094 309" fill="none" xmlns="http://www.w3.org/2000/svg">
<path d="M732.44 113.68C731.64 113.68 730.96 113.4 730.4 112.84C728.72 111.16 726.88 108.76 724.88 105.64C722.96 102.52 721.04 98.96 719.12 94.96C717.2 90.96 715.44 86.72 713.84 82.24C712.32 77.68 711.08 73.16 710.12 68.68C709.24 64.12 708.8 59.8 708.8 55.72C708.8 50.6 709.48 45.48 710.84 40.36C712.2 35.24 713.96 30.4 716.12 25.84C718.28 21.2 720.56 17.08 722.96 13.48C725.44 9.79999 727.76 6.88 729.92 4.72C730.32 4.31999 730.8 3.99999 731.36 3.76C732 3.52 732.6 3.39999 733.16 3.39999C733.56 3.39999 734.08 3.59999 734.72 3.99999C735.44 4.31999 735.8 4.76 735.8 5.32C735.8 5.4 735.68 5.6 735.44 5.92C735.2 6.24 734.96 6.6 734.72 7C734.48 7.32 734.32 7.52 734.24 7.6C731.84 10.4 729.44 14.16 727.04 18.88C724.64 23.6 722.64 29 721.04 35.08C719.52 41.08 718.76 47.48 718.76 54.28C718.76 59.4 719.2 64.72 720.08 70.24C720.96 75.68 722.12 80.96 723.56 86.08C725 91.12 726.6 95.6 728.36 99.52C730.2 103.52 732.04 106.6 733.88 108.76C733.96 108.84 734.12 109.04 734.36 109.36C734.68 109.68 734.96 110 735.2 110.32C735.52 110.72 735.68 110.96 735.68 111.04C735.68 111.84 735.32 112.48 734.6 112.96C733.96 113.44 733.24 113.68 732.44 113.68ZM740.052 88.6C739.012 88.6 738.172 88.44 737.532 88.12C736.972 87.88 736.692 87.56 736.692 87.16C736.692 86.44 737.052 85.96 737.772 85.72C738.572 85.4 739.092 85.2 739.332 85.12C742.452 84.48 744.852 83.56 746.532 82.36C748.212 81.08 749.052 79.12 749.052 76.48V20.8C749.052 18.88 748.852 17.48 748.452 16.6C748.052 15.64 747.332 14.96 746.292 14.56C745.252 14.08 743.732 13.68 741.732 13.36C739.092 12.88 737.772 12.08 737.772 10.96C737.772 10.48 738.092 10.16 738.732 10C739.372 9.75999 740.212 9.63999 741.252 9.63999C743.412 9.63999 745.132 9.68 746.412 9.76C747.772 9.84 749.052 9.92 750.252 10C751.452 10 752.932 10 754.692 10C756.692 10 758.412 10 759.852 10C761.292 9.92 762.772 9.84 764.292 9.76C765.812 9.68 767.652 9.63999 769.812 9.63999C770.852 9.63999 771.692 9.75999 772.332 10C772.972 10.16 773.292 10.48 773.292 10.96C773.292 11.52 772.972 12 772.332 12.4C771.692 12.8 770.692 13.12 769.332 13.36C766.372 13.92 763.852 14.6 761.772 15.4C759.692 16.12 758.652 17.64 758.652 19.96V76.48C758.652 78.96 759.212 80.8 760.332 82C761.452 83.2 763.972 83.8 767.892 83.8H782.772C784.932 83.8 786.812 83.48 788.412 82.84C790.092 82.12 791.332 81.4 792.132 80.68C793.732 79.32 794.892 78.12 795.612 77.08C796.412 75.96 797.332 74.32 798.372 72.16C798.532 71.68 798.852 70.96 799.332 70C799.892 69.04 800.452 68.56 801.012 68.56C801.492 68.56 801.852 68.8 802.092 69.28C802.332 69.76 802.452 70.24 802.452 70.72C802.452 70.8 802.412 70.92 802.332 71.08C802.332 71.16 802.332 71.24 802.332 71.32C801.772 73.4 801.252 75.28 800.772 76.96C800.372 78.64 800.012 80.24 799.692 81.76C799.452 83.28 799.252 84.88 799.092 86.56C799.012 87.12 798.852 87.6 798.612 88C798.452 88.4 798.052 88.6 797.412 88.6C793.412 88.6 789.572 88.56 785.892 88.48C782.212 88.4 778.652 88.32 775.212 88.24C771.852 88.24 768.612 88.2 765.492 88.12C762.372 88.04 759.292 88 756.252 88C754.252 88 751.972 88.04 749.412 88.12C746.932 88.2 744.732 88.28 742.812 88.36C740.972 88.52 740.052 88.6 740.052 88.6ZM820.69 89.8C816.29 89.8 812.45 88.72 809.17 86.56C805.89 84.4 803.33 81.36 801.49 77.44C799.65 73.44 798.73 68.84 798.73 63.64C798.73 59 799.77 54.8 801.85 51.04C804.01 47.2 806.85 44.12 810.37 41.8C813.89 39.48 817.73 38.32 821.89 38.32C825.09 38.32 827.93 38.96 830.41 40.24C832.89 41.52 834.81 43.32 836.17 45.64C837.61 47.88 838.33 50.48 838.33 53.44C838.33 55.92 837.13 57.16 834.73 57.16H809.41C808.29 57.16 807.49 57.48 807.01 58.12C806.61 58.68 806.41 59.84 806.41 61.6C806.41 65.44 807.25 68.96 808.93 72.16C810.61 75.28 812.85 77.8 815.65 79.72C818.45 81.56 821.53 82.48 824.89 82.48C827.29 82.48 829.45 82.04 831.37 81.16C833.37 80.2 835.13 78.84 836.65 77.08C836.97 76.68 837.21 76.44 837.37 76.36C837.53 76.2 837.73 76.12 837.97 76.12C838.61 76.12 838.93 76.52 838.93 77.32C838.93 78.84 838.21 80.52 836.77 82.36C835.57 83.88 834.13 85.2 832.45 86.32C830.77 87.44 828.93 88.28 826.93 88.84C824.93 89.48 822.85 89.8 820.69 89.8ZM809.65 53.44H820.57C822.49 53.44 824.13 53.4 825.49 53.32C826.85 53.24 828.17 53.08 829.45 52.84C829.85 52.76 830.09 52.52 830.17 52.12C830.33 51.64 830.41 51 830.41 50.2C830.41 47.88 829.37 45.92 827.29 44.32C825.29 42.64 822.89 41.8 820.09 41.8C818.25 41.8 816.41 42.36 814.57 43.48C812.73 44.52 811.21 45.84 810.01 47.44C808.81 49.04 808.21 50.64 808.21 52.24C808.21 53.04 808.69 53.44 809.65 53.44ZM856.191 88.6C855.151 88.6 854.311 88.48 853.671 88.24C853.031 88.08 852.711 87.76 852.711 87.28C852.711 86.32 854.031 85.6 856.671 85.12C859.711 84.56 861.791 83.64 862.911 82.36C864.111 81.08 864.711 78.96 864.711 76V25.36C864.711 21.76 864.231 19 863.271 17.08C862.391 15.16 860.431 13.92 857.391 13.36C856.031 13.12 855.031 12.8 854.391 12.4C853.751 12 853.431 11.52 853.431 10.96C853.431 10.48 853.751 10.16 854.391 10C855.031 9.75999 855.871 9.63999 856.911 9.63999C859.871 9.63999 862.351 9.68 864.351 9.76C866.431 9.84 868.471 9.92 870.471 10C872.471 10 874.831 10 877.551 10C879.871 10 882.351 10 884.991 10C887.631 10 890.191 10 892.671 10C895.231 10 897.471 9.8 899.391 9.4C901.391 9 903.111 8.8 904.551 8.8C904.951 8.8 905.391 8.88 905.871 9.03999C906.351 9.2 906.631 9.48 906.711 9.88C906.871 10.76 906.991 12.08 907.071 13.84C907.151 15.52 907.191 17.16 907.191 18.76C907.271 20.36 907.311 21.44 907.311 22C907.311 23.68 906.951 24.52 906.231 24.52C905.831 24.52 905.471 24.4 905.151 24.16C904.831 23.84 904.591 23.48 904.431 23.08C904.111 21.72 903.711 20.56 903.231 19.6C902.751 18.56 902.231 17.76 901.671 17.2C900.551 15.92 899.311 15.08 897.951 14.68C896.591 14.2 895.151 13.96 893.631 13.96H878.391C876.551 13.96 875.431 14.56 875.031 15.76C874.631 16.96 874.391 18.36 874.311 19.96C874.231 21.48 874.191 23.36 874.191 25.6C874.191 27.76 874.191 29.88 874.191 31.96C874.191 33.96 874.191 36 874.191 38.08C874.191 40.16 874.231 41.92 874.311 43.36C874.311 44 874.351 44.6 874.431 45.16C874.591 45.72 874.951 46 875.511 46C878.071 46 880.671 45.96 883.311 45.88C885.951 45.72 887.991 45.64 889.431 45.64C891.191 45.64 892.711 45.16 893.991 44.2C895.271 43.24 896.191 42.08 896.751 40.72C896.911 40.4 897.231 40 897.711 39.52C898.191 38.96 898.591 38.68 898.911 38.68C899.231 38.68 899.591 38.88 899.991 39.28C900.391 39.6 900.551 40.04 900.471 40.6C900.391 41.96 900.311 43.16 900.231 44.2C900.151 45.24 900.111 46.24 900.111 47.2C900.111 48.4 900.151 49.64 900.231 50.92C900.311 52.12 900.391 53.6 900.471 55.36C900.471 55.92 900.391 56.4 900.231 56.8C900.151 57.2 899.871 57.4 899.391 57.4C898.591 57.4 897.951 57.04 897.471 56.32C897.071 55.6 896.791 55.04 896.631 54.64C896.071 52.8 895.231 51.56 894.111 50.92C892.991 50.2 891.951 49.84 890.991 49.84C889.951 49.84 888.911 49.84 887.871 49.84C886.911 49.76 885.951 49.72 884.991 49.72C883.631 49.72 882.311 49.72 881.031 49.72C879.751 49.72 878.471 49.8 877.191 49.96C876.391 50.04 875.711 50.32 875.151 50.8C874.591 51.2 874.311 51.92 874.311 52.96C874.311 56.64 874.311 60.4 874.311 64.24C874.391 68 874.511 71.88 874.671 75.88C874.831 78.44 875.431 80.48 876.471 82C877.591 83.52 879.631 84.56 882.591 85.12C883.951 85.36 884.951 85.64 885.591 85.96C886.231 86.28 886.551 86.72 886.551 87.28C886.551 87.76 886.231 88.08 885.591 88.24C884.951 88.48 884.111 88.6 883.071 88.6C880.911 88.6 879.231 88.52 878.031 88.36C876.911 88.2 875.871 88.08 874.911 88C874.031 87.84 872.831 87.76 871.311 87.76C869.391 87.76 867.671 87.84 866.151 88C864.711 88.08 863.231 88.2 861.711 88.36C860.191 88.52 858.351 88.6 856.191 88.6ZM907.397 88.36C906.677 88.36 906.077 88.24 905.597 88C905.197 87.84 904.997 87.52 904.997 87.04C904.997 86.4 905.277 85.96 905.837 85.72C906.477 85.48 907.117 85.28 907.757 85.12C909.437 84.72 910.717 84.24 911.597 83.68C912.477 83.04 912.917 82 912.917 80.56V54.52C912.917 52.36 912.517 50.44 911.717 48.76C910.997 47.08 909.597 46.08 907.517 45.76C907.117 45.68 906.797 45.52 906.557 45.28C906.397 45.04 906.317 44.68 906.317 44.2C906.317 43.32 906.677 42.84 907.397 42.76C910.597 42.04 913.237 41.08 915.317 39.88C917.397 38.6 918.957 37.56 919.997 36.76C920.717 36.2 921.277 35.92 921.677 35.92C922.157 35.92 922.397 36.12 922.397 36.52C922.397 37.16 922.277 38.44 922.037 40.36C921.877 42.2 921.717 44.28 921.557 46.6C921.397 48.84 921.317 50.88 921.317 52.72V80.56C921.317 81.92 921.757 82.92 922.637 83.56C923.597 84.2 924.877 84.72 926.477 85.12C927.117 85.28 927.717 85.48 928.277 85.72C928.917 85.96 929.237 86.4 929.237 87.04C929.237 87.92 928.437 88.36 926.837 88.36C925.317 88.36 924.077 88.28 923.117 88.12C922.237 88.04 921.357 87.96 920.477 87.88C919.677 87.8 918.557 87.76 917.117 87.76C915.757 87.76 914.637 87.8 913.757 87.88C912.877 87.96 911.997 88.04 911.117 88.12C910.237 88.28 908.997 88.36 907.397 88.36ZM916.997 26.08C915.317 26.08 913.877 25.52 912.677 24.4C911.557 23.2 910.997 21.76 910.997 20.08C910.997 18.32 911.557 16.88 912.677 15.76C913.877 14.56 915.317 13.96 916.997 13.96C918.757 13.96 920.197 14.56 921.317 15.76C922.517 16.88 923.117 18.32 923.117 20.08C923.117 21.76 922.517 23.2 921.317 24.4C920.197 25.52 918.757 26.08 916.997 26.08ZM928.411 88.36C927.691 88.36 927.091 88.24 926.611 88C926.211 87.84 926.011 87.52 926.011 87.04C926.011 86.4 926.251 86 926.731 85.84C927.211 85.6 927.891 85.36 928.771 85.12C929.971 84.8 931.131 84.36 932.251 83.8C933.371 83.24 933.931 82.16 933.931 80.56V54.76C933.931 52.6 933.691 50.76 933.211 49.24C932.811 47.72 931.571 46.68 929.491 46.12C929.171 45.96 928.891 45.8 928.651 45.64C928.411 45.4 928.291 45.04 928.291 44.56C928.291 43.68 928.651 43.2 929.371 43.12C932.171 42.4 934.451 41.52 936.211 40.48C937.971 39.44 939.691 38.28 941.371 37C941.611 36.84 941.811 36.72 941.971 36.64C942.211 36.48 942.451 36.4 942.691 36.4C942.851 36.4 942.971 36.48 943.051 36.64C943.211 36.8 943.291 37 943.291 37.24C943.291 37.8 943.171 38.96 942.931 40.72C942.771 42.4 942.691 43.8 942.691 44.92C942.691 45.24 942.691 45.56 942.691 45.88C942.771 46.12 942.851 46.28 942.931 46.36C945.731 43.72 948.691 41.72 951.811 40.36C955.011 39 958.491 38.32 962.251 38.32C966.171 38.32 969.411 39.92 971.971 43.12C974.531 46.32 975.811 50.28 975.811 55V80.56C975.811 82.16 976.371 83.24 977.491 83.8C978.611 84.28 979.771 84.72 980.971 85.12C981.611 85.36 982.211 85.64 982.771 85.96C983.411 86.2 983.731 86.64 983.731 87.28C983.731 87.76 983.451 88.04 982.891 88.12C982.331 88.28 981.811 88.36 981.331 88.36C979.731 88.36 978.491 88.28 977.611 88.12C976.731 88.04 975.891 87.96 975.091 87.88C974.291 87.8 973.171 87.76 971.731 87.76C970.371 87.76 969.251 87.8 968.371 87.88C967.491 87.96 966.571 88.04 965.611 88.12C964.731 88.28 963.491 88.36 961.891 88.36C961.491 88.36 960.971 88.28 960.331 88.12C959.771 88.04 959.491 87.76 959.491 87.28C959.491 86.64 959.771 86.2 960.331 85.96C960.971 85.64 961.611 85.36 962.251 85.12C963.451 84.72 964.611 84.28 965.731 83.8C966.851 83.24 967.411 82.16 967.411 80.56V55.36C967.411 51.84 966.411 49.12 964.411 47.2C962.491 45.2 959.891 44.16 956.611 44.08C953.731 44.08 951.211 44.56 949.051 45.52C946.891 46.4 944.971 47.52 943.291 48.88C942.971 49.2 942.731 49.64 942.571 50.2C942.411 50.68 942.331 51.16 942.331 51.64V80.56C942.331 82.16 942.891 83.24 944.011 83.8C945.131 84.36 946.291 84.8 947.491 85.12C949.331 85.6 950.251 86.24 950.251 87.04C950.251 87.52 950.051 87.84 949.651 88C949.251 88.24 948.651 88.36 947.851 88.36C946.251 88.36 944.971 88.28 944.011 88.12C943.131 88.04 942.291 87.96 941.491 87.88C940.691 87.8 939.571 87.76 938.131 87.76C936.771 87.76 935.651 87.8 934.771 87.88C933.971 87.96 933.091 88.04 932.131 88.12C931.251 88.28 930.011 88.36 928.411 88.36ZM1020.97 90.28C1020.81 90.28 1020.53 90.12 1020.13 89.8C1019.81 89.48 1019.65 89.24 1019.65 89.08C1019.65 88.28 1019.73 87.16 1019.89 85.72C1020.13 84.2 1020.25 82.92 1020.25 81.88V81.16C1019.05 83 1017.13 84.88 1014.49 86.8C1011.85 88.72 1008.53 89.68 1004.53 89.68C999.97 89.68 996.01 88.48 992.65 86.08C989.37 83.68 986.81 80.6 984.97 76.84C983.21 73.08 982.33 69.2 982.33 65.2C982.33 60.56 983.41 56.2 985.57 52.12C987.73 48.04 990.81 44.72 994.81 42.16C998.89 39.6 1003.73 38.32 1009.33 38.32C1010.93 38.32 1012.53 38.48 1014.13 38.8C1015.81 39.04 1017.09 39.32 1017.97 39.64C1018.69 39.88 1019.21 40 1019.53 40C1020.09 40 1020.37 39.04 1020.37 37.12V20.08C1020.37 16.8 1019.85 14.6 1018.81 13.48C1017.77 12.36 1016.29 11.64 1014.37 11.32C1013.65 11.16 1013.29 10.64 1013.29 9.76C1013.29 9.04 1013.61 8.56 1014.25 8.32C1017.77 7.44 1020.53 6.6 1022.53 5.79999C1024.53 4.99999 1026.09 4.35999 1027.21 3.88C1027.53 3.72 1027.81 3.64 1028.05 3.64C1028.37 3.56 1028.61 3.51999 1028.77 3.51999C1029.25 3.51999 1029.53 3.75999 1029.61 4.24C1029.61 4.72 1029.53 5.56 1029.37 6.75999C1029.29 7.87999 1029.17 9.55999 1029.01 11.8C1028.85 14.04 1028.77 16.96 1028.77 20.56V74.8C1028.77 77.52 1028.97 79.52 1029.37 80.8C1029.77 82 1030.41 82.6 1031.29 82.6C1031.69 82.6 1032.37 82.56 1033.33 82.48C1034.37 82.4 1035.41 82.32 1036.45 82.24C1037.89 82.16 1038.61 82.52 1038.61 83.32C1038.61 83.88 1038.41 84.4 1038.01 84.88C1037.69 85.28 1037.33 85.48 1036.93 85.48C1034.69 85.8 1032.49 86.28 1030.33 86.92C1028.17 87.48 1025.69 88.36 1022.89 89.56C1022.25 89.88 1021.81 90.08 1021.57 90.16C1021.41 90.24 1021.21 90.28 1020.97 90.28ZM1008.85 83.44C1010.93 83.44 1012.97 82.92 1014.97 81.88C1016.97 80.76 1018.73 79.32 1020.25 77.56L1020.37 55.96C1020.37 53.8 1019.73 51.68 1018.45 49.6C1017.25 47.52 1015.53 45.84 1013.29 44.56C1011.13 43.2 1008.57 42.52 1005.61 42.52C1003.77 42.52 1001.69 43.08 999.37 44.2C997.05 45.32 995.05 47.32 993.37 50.2C991.69 53 990.85 57.08 990.85 62.44C990.85 67 991.53 70.68 992.89 73.48C994.25 76.2 995.89 78.28 997.81 79.72C999.81 81.16 1001.81 82.16 1003.81 82.72C1005.89 83.2 1007.57 83.44 1008.85 83.44ZM1047.71 89.68C1045.23 89.68 1042.91 89.28 1040.75 88.48C1038.59 87.76 1036.75 86.72 1035.23 85.36C1034.83 84.48 1034.51 83 1034.27 80.92C1034.11 78.84 1033.99 77.12 1033.91 75.76C1033.91 75.04 1034.43 74.68 1035.47 74.68C1035.79 74.68 1036.07 74.76 1036.31 74.92C1036.63 75 1036.83 75.2 1036.91 75.52C1037.95 79.44 1039.59 82.24 1041.83 83.92C1044.15 85.6 1046.47 86.44 1048.79 86.44C1051.11 86.44 1053.07 85.68 1054.67 84.16C1056.35 82.56 1057.19 80.6 1057.19 78.28C1057.19 76.12 1056.47 74.28 1055.03 72.76C1053.59 71.16 1051.07 69.24 1047.47 67C1044.75 65.32 1042.55 63.72 1040.87 62.2C1039.19 60.68 1037.95 59.12 1037.15 57.52C1036.43 55.92 1036.07 54.12 1036.07 52.12C1036.07 49.56 1036.67 47.24 1037.87 45.16C1039.07 43.08 1040.87 41.44 1043.27 40.24C1045.67 38.96 1048.67 38.32 1052.27 38.32C1054.67 38.32 1056.67 38.56 1058.27 39.04C1059.87 39.52 1061.07 40.04 1061.87 40.6C1062.51 41.48 1063.03 42.88 1063.43 44.8C1063.91 46.64 1064.15 48.4 1064.15 50.08C1064.15 50.64 1063.75 50.92 1062.95 50.92C1062.47 50.92 1061.99 50.84 1061.51 50.68C1061.11 50.44 1060.83 50.16 1060.67 49.84C1059.63 47.2 1058.31 45.2 1056.71 43.84C1055.19 42.4 1053.27 41.68 1050.95 41.68C1048.95 41.68 1047.15 42.28 1045.55 43.48C1044.03 44.68 1043.27 46.44 1043.27 48.76C1043.27 50.6 1043.83 52.24 1044.95 53.68C1046.15 55.12 1048.35 56.76 1051.55 58.6C1056.19 61.24 1059.63 63.72 1061.87 66.04C1064.19 68.28 1065.35 71.28 1065.35 75.04C1065.35 79.36 1063.71 82.88 1060.43 85.6C1057.15 88.32 1052.91 89.68 1047.71 89.68ZM1070.18 113.68C1069.38 113.68 1068.62 113.44 1067.9 112.96C1067.26 112.48 1066.94 111.84 1066.94 111.04C1066.94 110.96 1067.06 110.72 1067.3 110.32C1067.62 110 1067.94 109.68 1068.26 109.36C1068.58 109.04 1068.74 108.84 1068.74 108.76C1070.58 106.6 1072.38 103.52 1074.14 99.52C1075.98 95.6 1077.62 91.12 1079.06 86.08C1080.5 80.96 1081.66 75.68 1082.54 70.24C1083.42 64.72 1083.86 59.4 1083.86 54.28C1083.86 47.48 1083.06 41.08 1081.46 35.08C1079.94 29 1077.98 23.6 1075.58 18.88C1073.26 14.16 1070.86 10.4 1068.38 7.6C1068.3 7.52 1068.14 7.32 1067.9 7C1067.66 6.6 1067.42 6.24 1067.18 5.92C1066.94 5.6 1066.82 5.4 1066.82 5.32C1066.82 4.76 1067.14 4.31999 1067.78 3.99999C1068.5 3.59999 1069.06 3.39999 1069.46 3.39999C1070.1 3.39999 1070.7 3.52 1071.26 3.76C1071.9 3.99999 1072.38 4.31999 1072.7 4.72C1074.86 6.88 1077.14 9.79999 1079.54 13.48C1082.02 17.08 1084.34 21.2 1086.5 25.84C1088.66 30.4 1090.42 35.24 1091.78 40.36C1093.14 45.48 1093.82 50.6 1093.82 55.72C1093.82 59.8 1093.34 64.12 1092.38 68.68C1091.5 73.16 1090.26 77.68 1088.66 82.24C1087.14 86.72 1085.42 90.96 1083.5 94.96C1081.58 98.96 1079.62 102.52 1077.62 105.64C1075.7 108.76 1073.9 111.16 1072.22 112.84C1071.66 113.4 1070.98 113.68 1070.18 113.68Z" fill="#D9D9D9"/>
<path d="M76.4492 264.281C61.6836 264.281 48.7409 262.048 37.6211 257.582C26.5924 253.116 17.8424 246.736 11.3711 238.441C4.89974 230.056 1.25391 220.076 0.433594 208.5L0.296875 206.449H30.2383L30.5117 208.227C31.4232 214.242 33.9297 219.483 38.0312 223.949C42.224 228.324 47.6927 231.697 54.4375 234.066C61.1823 236.436 68.9297 237.621 77.6797 237.621C86.5208 237.621 94.1315 236.391 100.512 233.93C106.892 231.469 111.814 227.96 115.277 223.402C118.832 218.845 120.609 213.513 120.609 207.406V207.27C120.609 199.34 117.738 193.051 111.996 188.402C106.345 183.663 96.957 179.88 83.832 177.055L62.3672 172.543C43.0443 168.441 28.6432 161.879 19.1641 152.855C9.6849 143.741 4.94531 131.892 4.94531 117.309V117.172C5.03646 105.961 8.13542 96.1172 14.2422 87.6406C20.349 79.0729 28.7799 72.4193 39.5352 67.6797C50.2904 62.849 62.6406 60.4336 76.5859 60.4336C90.2578 60.4336 102.335 62.7578 112.816 67.4062C123.298 72.0547 131.592 78.5716 137.699 86.957C143.806 95.2513 147.224 104.958 147.953 116.078L148.09 118.266H118.148L117.875 116.488C117.055 110.29 114.776 105.004 111.039 100.629C107.393 96.2539 102.608 92.9271 96.6836 90.6484C90.7591 88.2786 83.8776 87.0938 76.0391 87.0938C67.9271 87.0938 60.8633 88.3242 54.8477 90.7852C48.832 93.1549 44.1836 96.4818 40.9023 100.766C37.6211 105.049 35.9805 110.108 35.9805 115.941V116.078C35.9805 123.461 38.8971 129.477 44.7305 134.125C50.5638 138.773 59.6328 142.419 71.9375 145.062L93.4023 149.711C106.983 152.536 118.057 156.365 126.625 161.195C135.193 166.026 141.527 172.042 145.629 179.242C149.73 186.443 151.781 195.147 151.781 205.355V205.492C151.781 217.523 148.728 227.96 142.621 236.801C136.605 245.551 127.947 252.341 116.645 257.172C105.434 261.911 92.0352 264.281 76.4492 264.281ZM198.353 263.598C188.783 263.598 180.397 261.775 173.197 258.129C165.996 254.483 160.391 249.379 156.38 242.816C152.37 236.254 150.365 228.689 150.365 220.121V219.848C150.365 211.462 152.461 204.262 156.654 198.246C160.847 192.139 166.908 187.309 174.837 183.754C182.858 180.199 192.52 178.103 203.822 177.465L258.236 174.184V194.965L207.787 198.109C198.946 198.656 192.11 200.798 187.279 204.535C182.539 208.181 180.17 213.057 180.17 219.164V219.438C180.17 225.727 182.539 230.694 187.279 234.34C192.11 237.986 198.49 239.809 206.42 239.809C213.347 239.809 219.545 238.396 225.013 235.57C230.573 232.745 234.948 228.871 238.138 223.949C241.328 218.936 242.923 213.331 242.923 207.133V164.34C242.923 156.41 240.462 150.212 235.541 145.746C230.619 141.189 223.555 138.91 214.349 138.91C205.873 138.91 199.037 140.733 193.841 144.379C188.737 148.025 185.547 152.719 184.271 158.461L183.998 159.691H156.107L156.244 158.188C156.973 149.893 159.753 142.465 164.584 135.902C169.414 129.249 176.114 124.008 184.681 120.18C193.249 116.352 203.412 114.438 215.17 114.438C226.927 114.438 237.09 116.397 245.658 120.316C254.226 124.236 260.879 129.75 265.619 136.859C270.358 143.969 272.728 152.309 272.728 161.879V261H242.923V238.305H242.377C239.551 243.5 235.905 248.012 231.439 251.84C226.973 255.577 221.914 258.493 216.263 260.59C210.703 262.595 204.733 263.598 198.353 263.598ZM282.796 261V117.172H312.601V261H282.796ZM297.698 95.0234C292.959 95.0234 288.903 93.3828 285.53 90.1016C282.158 86.7292 280.472 82.7188 280.472 78.0703C280.472 73.2396 282.158 69.1836 285.53 65.9023C288.903 62.6211 292.959 60.9805 297.698 60.9805C302.529 60.9805 306.585 62.6211 309.866 65.9023C313.239 69.1836 314.925 73.2396 314.925 78.0703C314.925 82.7188 313.239 86.7292 309.866 90.1016C306.585 93.3828 302.529 95.0234 297.698 95.0234ZM323.216 261V117.172H353.02V138.91H353.567C357.395 131.618 363.001 125.74 370.384 121.273C377.766 116.716 386.881 114.438 397.727 114.438C413.496 114.438 425.709 119.223 434.368 128.793C443.027 138.272 447.356 151.306 447.356 167.895V261H417.688V173.637C417.688 162.79 415.136 154.451 410.032 148.617C405.019 142.784 397.408 139.867 387.2 139.867C380.273 139.867 374.212 141.417 369.016 144.516C363.912 147.615 359.947 151.944 357.122 157.504C354.388 163.064 353.02 169.626 353.02 177.191V261H323.216ZM506.916 263.871C492.698 263.871 482.079 260.681 475.061 254.301C468.134 247.829 464.67 237.393 464.67 222.992V140.688H444.026V117.172H464.67V79.7109H495.022V117.172H521.955V140.688H495.022V221.352C495.022 228.643 496.617 233.656 499.807 236.391C502.997 239.034 507.737 240.355 514.026 240.355C515.575 240.355 516.988 240.31 518.264 240.219C519.631 240.036 520.862 239.9 521.955 239.809V262.641C520.224 262.914 518.036 263.188 515.393 263.461C512.75 263.734 509.924 263.871 506.916 263.871ZM585.344 263.871C571.581 263.871 559.549 260.863 549.25 254.848C539.042 248.741 531.112 240.128 525.461 229.008C519.81 217.797 516.984 204.49 516.984 189.086V188.812C516.984 173.5 519.81 160.284 525.461 149.164C531.203 138.044 539.178 129.477 549.387 123.461C559.686 117.445 571.626 114.438 585.207 114.438C598.879 114.438 610.819 117.445 621.027 123.461C631.327 129.385 639.302 137.908 644.953 149.027C650.695 160.147 653.566 173.409 653.566 188.812V189.086C653.566 204.581 650.695 217.888 644.953 229.008C639.302 240.128 631.372 248.741 621.164 254.848C610.956 260.863 599.016 263.871 585.344 263.871ZM585.48 238.988C593.137 238.988 599.79 237.029 605.441 233.109C611.092 229.19 615.467 223.539 618.566 216.156C621.665 208.682 623.215 199.659 623.215 189.086V188.812C623.215 178.331 621.665 169.398 618.566 162.016C615.467 154.542 611.047 148.891 605.305 145.062C599.562 141.143 592.863 139.184 585.207 139.184C577.642 139.184 570.988 141.143 565.246 145.062C559.595 148.982 555.174 154.633 551.984 162.016C548.794 169.398 547.199 178.331 547.199 188.812V189.086C547.199 199.659 548.749 208.682 551.848 216.156C555.038 223.539 559.504 229.19 565.246 233.109C570.988 237.029 577.733 238.988 585.48 238.988ZM667.189 263.051C662.085 263.051 657.801 261.319 654.338 257.855C650.874 254.392 649.142 250.108 649.142 245.004C649.142 239.991 650.874 235.753 654.338 232.289C657.801 228.826 662.085 227.094 667.189 227.094C672.202 227.094 676.44 228.826 679.904 232.289C683.367 235.753 685.099 239.991 685.099 245.004C685.099 250.108 683.367 254.392 679.904 257.855C676.44 261.319 672.202 263.051 667.189 263.051ZM735.909 263.598C726.339 263.598 717.954 261.775 710.753 258.129C703.553 254.483 697.947 249.379 693.937 242.816C689.926 236.254 687.921 228.689 687.921 220.121V219.848C687.921 211.462 690.017 204.262 694.21 198.246C698.403 192.139 704.464 187.309 712.394 183.754C720.415 180.199 730.076 178.103 741.378 177.465L795.792 174.184V194.965L745.343 198.109C736.502 198.656 729.666 200.798 724.835 204.535C720.096 208.181 717.726 213.057 717.726 219.164V219.438C717.726 225.727 720.096 230.694 724.835 234.34C729.666 237.986 736.046 239.809 743.976 239.809C750.903 239.809 757.101 238.396 762.57 235.57C768.129 232.745 772.504 228.871 775.695 223.949C778.885 218.936 780.48 213.331 780.48 207.133V164.34C780.48 156.41 778.019 150.212 773.097 145.746C768.175 141.189 761.111 138.91 751.905 138.91C743.429 138.91 736.593 140.733 731.398 144.379C726.293 148.025 723.103 152.719 721.827 158.461L721.554 159.691H693.663L693.8 158.188C694.529 149.893 697.309 142.465 702.14 135.902C706.971 129.249 713.67 124.008 722.237 120.18C730.805 116.352 740.968 114.438 752.726 114.438C764.484 114.438 774.646 116.397 783.214 120.316C791.782 124.236 798.435 129.75 803.175 136.859C807.915 143.969 810.284 152.309 810.284 161.879V261H780.48V238.305H779.933C777.107 243.5 773.461 248.012 768.995 251.84C764.529 255.577 759.471 258.493 753.82 260.59C748.26 262.595 742.29 263.598 735.909 263.598ZM819.122 308.852V117.172H848.927V141.781H849.61C852.436 136.13 856.036 131.254 860.411 127.152C864.877 123.051 869.981 119.906 875.723 117.719C881.466 115.531 887.755 114.438 894.591 114.438C906.804 114.438 917.423 117.491 926.446 123.598C935.47 129.613 942.442 138.227 947.364 149.438C952.286 160.557 954.747 173.773 954.747 189.086V189.223C954.747 204.535 952.24 217.751 947.227 228.871C942.305 239.991 935.378 248.604 926.446 254.711C917.514 260.818 907.032 263.871 895.001 263.871C888.256 263.871 881.921 262.777 875.997 260.59C870.164 258.402 865.014 255.303 860.548 251.293C856.082 247.191 852.39 242.361 849.473 236.801H848.927V308.852H819.122ZM886.798 238.305C894.545 238.305 901.244 236.345 906.895 232.426C912.546 228.415 916.876 222.719 919.884 215.336C922.891 207.953 924.395 199.249 924.395 189.223V189.086C924.395 178.878 922.891 170.082 919.884 162.699C916.876 155.316 912.546 149.665 906.895 145.746C901.244 141.827 894.545 139.867 886.798 139.867C879.324 139.867 872.716 141.918 866.973 146.02C861.231 150.03 856.72 155.727 853.438 163.109C850.248 170.401 848.653 179.06 848.653 189.086V189.223C848.653 199.158 850.294 207.816 853.575 215.199C856.856 222.491 861.322 228.188 866.973 232.289C872.716 236.299 879.324 238.305 886.798 238.305ZM957.842 308.852V117.172H987.647V141.781H988.33C991.156 136.13 994.756 131.254 999.131 127.152C1003.6 123.051 1008.7 119.906 1014.44 117.719C1020.19 115.531 1026.47 114.438 1033.31 114.438C1045.52 114.438 1056.14 117.491 1065.17 123.598C1074.19 129.613 1081.16 138.227 1086.08 149.438C1091.01 160.557 1093.47 173.773 1093.47 189.086V189.223C1093.47 204.535 1090.96 217.751 1085.95 228.871C1081.03 239.991 1074.1 248.604 1065.17 254.711C1056.23 260.818 1045.75 263.871 1033.72 263.871C1026.98 263.871 1020.64 262.777 1014.72 260.59C1008.88 258.402 1003.73 255.303 999.268 251.293C994.802 247.191 991.11 242.361 988.194 236.801H987.647V308.852H957.842ZM1025.52 238.305C1033.27 238.305 1039.96 236.345 1045.62 232.426C1051.27 228.415 1055.6 222.719 1058.6 215.336C1061.61 207.953 1063.12 199.249 1063.12 189.223V189.086C1063.12 178.878 1061.61 170.082 1058.6 162.699C1055.6 155.316 1051.27 149.665 1045.62 145.746C1039.96 141.827 1033.27 139.867 1025.52 139.867C1018.04 139.867 1011.44 141.918 1005.69 146.02C999.952 150.03 995.44 155.727 992.159 163.109C988.968 170.401 987.373 179.06 987.373 189.086V189.223C987.373 199.158 989.014 207.816 992.295 215.199C995.577 222.491 1000.04 228.188 1005.69 232.289C1011.44 236.299 1018.04 238.305 1025.52 238.305Z" fill="#D9D9D9"/>
</svg>
