<svg width="1094" height="248" viewBox="0 0 1094 248" fill="none" xmlns="http://www.w3.org/2000/svg">
<g clip-path="url(#clip0_451_15)">
<path d="M76.4492 204.281C61.6836 204.281 48.7409 202.048 37.6211 197.582C26.5924 193.116 17.8424 186.736 11.3711 178.441C4.89974 170.056 1.25391 160.076 0.433594 148.5L0.296875 146.449H30.2383L30.5117 148.227C31.4232 154.242 33.9297 159.483 38.0312 163.949C42.224 168.324 47.6927 171.697 54.4375 174.066C61.1823 176.436 68.9297 177.621 77.6797 177.621C86.5208 177.621 94.1315 176.391 100.512 173.93C106.892 171.469 111.814 167.96 115.277 163.402C118.832 158.845 120.609 153.513 120.609 147.406V147.27C120.609 139.34 117.738 133.051 111.996 128.402C106.345 123.663 96.957 119.88 83.832 117.055L62.3672 112.543C43.0443 108.441 28.6432 101.879 19.1641 92.8555C9.6849 83.7409 4.94531 71.8919 4.94531 57.3086V57.1719C5.03646 45.9609 8.13542 36.1172 14.2422 27.6406C20.349 19.0729 28.7799 12.4193 39.5352 7.67969C50.2904 2.84896 62.6406 0.433594 76.5859 0.433594C90.2578 0.433594 102.335 2.75781 112.816 7.40625C123.298 12.0547 131.592 18.5716 137.699 26.957C143.806 35.2513 147.224 44.9583 147.953 56.0781L148.09 58.2656H118.148L117.875 56.4883C117.055 50.2904 114.776 45.0039 111.039 40.6289C107.393 36.2539 102.608 32.9271 96.6836 30.6484C90.7591 28.2786 83.8776 27.0938 76.0391 27.0938C67.9271 27.0938 60.8633 28.3242 54.8477 30.7852C48.832 33.1549 44.1836 36.4818 40.9023 40.7656C37.6211 45.0495 35.9805 50.1081 35.9805 55.9414V56.0781C35.9805 63.4609 38.8971 69.4766 44.7305 74.125C50.5638 78.7734 59.6328 82.4193 71.9375 85.0625L93.4023 89.7109C106.983 92.5365 118.057 96.3646 126.625 101.195C135.193 106.026 141.527 112.042 145.629 119.242C149.73 126.443 151.781 135.147 151.781 145.355V145.492C151.781 157.523 148.728 167.96 142.621 176.801C136.605 185.551 127.947 192.341 116.645 197.172C105.434 201.911 92.0352 204.281 76.4492 204.281ZM198.353 203.598C188.783 203.598 180.397 201.775 173.197 198.129C165.996 194.483 160.391 189.379 156.38 182.816C152.37 176.254 150.365 168.689 150.365 160.121V159.848C150.365 151.462 152.461 144.262 156.654 138.246C160.847 132.139 166.908 127.309 174.837 123.754C182.858 120.199 192.52 118.103 203.822 117.465L258.236 114.184V134.965L207.787 138.109C198.946 138.656 192.11 140.798 187.279 144.535C182.539 148.181 180.17 153.057 180.17 159.164V159.438C180.17 165.727 182.539 170.694 187.279 174.34C192.11 177.986 198.49 179.809 206.42 179.809C213.347 179.809 219.545 178.396 225.013 175.57C230.573 172.745 234.948 168.871 238.138 163.949C241.328 158.936 242.923 153.331 242.923 147.133V104.34C242.923 96.4102 240.462 90.2122 235.541 85.7461C230.619 81.1888 223.555 78.9102 214.349 78.9102C205.873 78.9102 199.037 80.7331 193.841 84.3789C188.737 88.0247 185.547 92.7188 184.271 98.4609L183.998 99.6914H156.107L156.244 98.1875C156.973 89.8932 159.753 82.4648 164.584 75.9023C169.414 69.2487 176.114 64.0078 184.681 60.1797C193.249 56.3516 203.412 54.4375 215.17 54.4375C226.927 54.4375 237.09 56.3971 245.658 60.3164C254.226 64.2357 260.879 69.75 265.619 76.8594C270.358 83.9688 272.728 92.3086 272.728 101.879V201H242.923V178.305H242.377C239.551 183.5 235.905 188.012 231.439 191.84C226.973 195.577 221.914 198.493 216.263 200.59C210.703 202.595 204.733 203.598 198.353 203.598ZM282.796 201V57.1719H312.601V201H282.796ZM297.698 35.0234C292.959 35.0234 288.903 33.3828 285.53 30.1016C282.158 26.7292 280.472 22.7188 280.472 18.0703C280.472 13.2396 282.158 9.18359 285.53 5.90234C288.903 2.62109 292.959 0.980469 297.698 0.980469C302.529 0.980469 306.585 2.62109 309.866 5.90234C313.239 9.18359 314.925 13.2396 314.925 18.0703C314.925 22.7188 313.239 26.7292 309.866 30.1016C306.585 33.3828 302.529 35.0234 297.698 35.0234ZM323.216 201V57.1719H353.02V78.9102H353.567C357.395 71.6185 363.001 65.7396 370.384 61.2734C377.766 56.7161 386.881 54.4375 397.727 54.4375C413.496 54.4375 425.709 59.2227 434.368 68.793C443.027 78.2721 447.356 91.306 447.356 107.895V201H417.688V113.637C417.688 102.79 415.136 94.4505 410.032 88.6172C405.019 82.7839 397.408 79.8672 387.2 79.8672C380.273 79.8672 374.212 81.4167 369.016 84.5156C363.912 87.6146 359.947 91.944 357.122 97.5039C354.388 103.064 353.02 109.626 353.02 117.191V201H323.216ZM506.916 203.871C492.698 203.871 482.079 200.681 475.061 194.301C468.134 187.829 464.67 177.393 464.67 162.992V80.6875H444.026V57.1719H464.67V19.7109H495.022V57.1719H521.955V80.6875H495.022V161.352C495.022 168.643 496.617 173.656 499.807 176.391C502.997 179.034 507.737 180.355 514.026 180.355C515.575 180.355 516.988 180.31 518.264 180.219C519.631 180.036 520.862 179.9 521.955 179.809V202.641C520.224 202.914 518.036 203.188 515.393 203.461C512.75 203.734 509.924 203.871 506.916 203.871ZM585.344 203.871C571.581 203.871 559.549 200.863 549.25 194.848C539.042 188.741 531.112 180.128 525.461 169.008C519.81 157.797 516.984 144.49 516.984 129.086V128.812C516.984 113.5 519.81 100.284 525.461 89.1641C531.203 78.0443 539.178 69.4766 549.387 63.4609C559.686 57.4453 571.626 54.4375 585.207 54.4375C598.879 54.4375 610.819 57.4453 621.027 63.4609C631.327 69.3854 639.302 77.9076 644.953 89.0273C650.695 100.147 653.566 113.409 653.566 128.812V129.086C653.566 144.581 650.695 157.888 644.953 169.008C639.302 180.128 631.372 188.741 621.164 194.848C610.956 200.863 599.016 203.871 585.344 203.871ZM585.48 178.988C593.137 178.988 599.79 177.029 605.441 173.109C611.092 169.19 615.467 163.539 618.566 156.156C621.665 148.682 623.215 139.659 623.215 129.086V128.812C623.215 118.331 621.665 109.398 618.566 102.016C615.467 94.5417 611.047 88.8906 605.305 85.0625C599.562 81.1432 592.863 79.1836 585.207 79.1836C577.642 79.1836 570.988 81.1432 565.246 85.0625C559.595 88.9818 555.174 94.6328 551.984 102.016C548.794 109.398 547.199 118.331 547.199 128.812V129.086C547.199 139.659 548.749 148.682 551.848 156.156C555.038 163.539 559.504 169.19 565.246 173.109C570.988 177.029 577.733 178.988 585.48 178.988ZM667.189 203.051C662.085 203.051 657.801 201.319 654.338 197.855C650.874 194.392 649.142 190.108 649.142 185.004C649.142 179.991 650.874 175.753 654.338 172.289C657.801 168.826 662.085 167.094 667.189 167.094C672.202 167.094 676.44 168.826 679.904 172.289C683.367 175.753 685.099 179.991 685.099 185.004C685.099 190.108 683.367 194.392 679.904 197.855C676.44 201.319 672.202 203.051 667.189 203.051ZM735.909 203.598C726.339 203.598 717.954 201.775 710.753 198.129C703.553 194.483 697.947 189.379 693.937 182.816C689.926 176.254 687.921 168.689 687.921 160.121V159.848C687.921 151.462 690.017 144.262 694.21 138.246C698.403 132.139 704.464 127.309 712.394 123.754C720.415 120.199 730.076 118.103 741.378 117.465L795.792 114.184V134.965L745.343 138.109C736.502 138.656 729.666 140.798 724.835 144.535C720.096 148.181 717.726 153.057 717.726 159.164V159.438C717.726 165.727 720.096 170.694 724.835 174.34C729.666 177.986 736.046 179.809 743.976 179.809C750.903 179.809 757.101 178.396 762.57 175.57C768.129 172.745 772.504 168.871 775.695 163.949C778.885 158.936 780.48 153.331 780.48 147.133V104.34C780.48 96.4102 778.019 90.2122 773.097 85.7461C768.175 81.1888 761.111 78.9102 751.905 78.9102C743.429 78.9102 736.593 80.7331 731.398 84.3789C726.293 88.0247 723.103 92.7188 721.827 98.4609L721.554 99.6914H693.663L693.8 98.1875C694.529 89.8932 697.309 82.4648 702.14 75.9023C706.971 69.2487 713.67 64.0078 722.237 60.1797C730.805 56.3516 740.968 54.4375 752.726 54.4375C764.484 54.4375 774.646 56.3971 783.214 60.3164C791.782 64.2357 798.435 69.75 803.175 76.8594C807.915 83.9688 810.284 92.3086 810.284 101.879V201H780.48V178.305H779.933C777.107 183.5 773.461 188.012 768.995 191.84C764.529 195.577 759.471 198.493 753.82 200.59C748.26 202.595 742.29 203.598 735.909 203.598ZM819.122 248.852V57.1719H848.927V81.7812H849.61C852.436 76.1302 856.036 71.2539 860.411 67.1523C864.877 63.0508 869.981 59.9062 875.723 57.7188C881.466 55.5312 887.755 54.4375 894.591 54.4375C906.804 54.4375 917.423 57.4909 926.446 63.5977C935.47 69.6133 942.442 78.2266 947.364 89.4375C952.286 100.557 954.747 113.773 954.747 129.086V129.223C954.747 144.535 952.24 157.751 947.227 168.871C942.305 179.991 935.378 188.604 926.446 194.711C917.514 200.818 907.032 203.871 895.001 203.871C888.256 203.871 881.921 202.777 875.997 200.59C870.164 198.402 865.014 195.303 860.548 191.293C856.082 187.191 852.39 182.361 849.473 176.801H848.927V248.852H819.122ZM886.798 178.305C894.545 178.305 901.244 176.345 906.895 172.426C912.546 168.415 916.876 162.719 919.884 155.336C922.891 147.953 924.395 139.249 924.395 129.223V129.086C924.395 118.878 922.891 110.082 919.884 102.699C916.876 95.3164 912.546 89.6654 906.895 85.7461C901.244 81.8268 894.545 79.8672 886.798 79.8672C879.324 79.8672 872.716 81.918 866.973 86.0195C861.231 90.0299 856.72 95.7266 853.438 103.109C850.248 110.401 848.653 119.06 848.653 129.086V129.223C848.653 139.158 850.294 147.816 853.575 155.199C856.856 162.491 861.322 168.188 866.973 172.289C872.716 176.299 879.324 178.305 886.798 178.305ZM957.842 248.852V57.1719H987.647V81.7812H988.33C991.156 76.1302 994.756 71.2539 999.131 67.1523C1003.6 63.0508 1008.7 59.9062 1014.44 57.7188C1020.19 55.5312 1026.47 54.4375 1033.31 54.4375C1045.52 54.4375 1056.14 57.4909 1065.17 63.5977C1074.19 69.6133 1081.16 78.2266 1086.08 89.4375C1091.01 100.557 1093.47 113.773 1093.47 129.086V129.223C1093.47 144.535 1090.96 157.751 1085.95 168.871C1081.03 179.991 1074.1 188.604 1065.17 194.711C1056.23 200.818 1045.75 203.871 1033.72 203.871C1026.98 203.871 1020.64 202.777 1014.72 200.59C1008.88 198.402 1003.73 195.303 999.268 191.293C994.802 187.191 991.11 182.361 988.194 176.801H987.647V248.852H957.842ZM1025.52 178.305C1033.27 178.305 1039.96 176.345 1045.62 172.426C1051.27 168.415 1055.6 162.719 1058.6 155.336C1061.61 147.953 1063.12 139.249 1063.12 129.223V129.086C1063.12 118.878 1061.61 110.082 1058.6 102.699C1055.6 95.3164 1051.27 89.6654 1045.62 85.7461C1039.96 81.8268 1033.27 79.8672 1025.52 79.8672C1018.04 79.8672 1011.44 81.918 1005.69 86.0195C999.952 90.0299 995.44 95.7266 992.159 103.109C988.968 110.401 987.373 119.06 987.373 129.086V129.223C987.373 139.158 989.014 147.816 992.295 155.199C995.577 162.491 1000.04 168.188 1005.69 172.289C1011.44 176.299 1018.04 178.305 1025.52 178.305Z" fill="#D9D9D9"/>
</g>
<defs>
<clipPath id="clip0_451_15">
<rect width="1094" height="248" fill="white"/>
</clipPath>
</defs>
</svg>
