<svg width="1072" height="277" viewBox="0 0 1072 277" fill="none" xmlns="http://www.w3.org/2000/svg">
<path d="M60.1 276.2C58.1 276.2 56.4 275.5 55 274.1C50.8 269.9 46.2 263.9 41.2 256.1C36.4 248.3 31.6 239.4 26.8 229.4C22 219.4 17.6 208.8 13.6 197.6C9.8 186.2 6.7 174.9 4.3 163.7C2.1 152.3 1 141.5 1 131.3C1 118.5 2.7 105.7 6.1 92.9C9.5 80.1 13.9 68 19.3 56.6C24.7 45 30.4 34.7 36.4 25.7C42.6 16.5 48.4 9.19999 53.8 3.8C54.8 2.79999 56 1.99999 57.4 1.39999C59 0.799989 60.5 0.499987 61.9 0.499987C62.9 0.499987 64.2 0.999987 65.8 1.99999C67.6 2.79999 68.5 3.89999 68.5 5.3C68.5 5.49999 68.2 5.99999 67.6 6.8C67 7.6 66.4 8.5 65.8 9.5C65.2 10.3 64.8 10.8 64.6 11C58.6 18 52.6 27.4 46.6 39.2C40.6 51 35.6 64.5 31.6 79.7C27.8 94.7 25.9 110.7 25.9 127.7C25.9 140.5 27 153.8 29.2 167.6C31.4 181.2 34.3 194.4 37.9 207.2C41.5 219.8 45.5 231 49.9 240.8C54.5 250.8 59.1 258.5 63.7 263.9C63.9 264.1 64.3 264.6 64.9 265.4C65.7 266.2 66.4 267 67 267.8C67.8 268.8 68.2 269.4 68.2 269.6C68.2 271.6 67.3 273.2 65.5 274.4C63.9 275.6 62.1 276.2 60.1 276.2ZM123.829 216.8C115.429 216.8 107.629 215.5 100.429 212.9C93.4289 210.5 87.1289 207 81.5289 202.4C80.7289 201.6 79.9289 200.7 79.1289 199.7C78.5289 198.7 78.0289 197.6 77.6289 196.4C76.6289 192.4 75.9289 187.2 75.5289 180.8C75.3289 174.4 75.0289 169.1 74.6289 164.9C74.6289 163.5 75.2289 162.5 76.4289 161.9C77.6289 161.1 79.0289 160.7 80.6289 160.7C81.6289 160.7 82.6289 161 83.6289 161.6C84.6289 162 85.2289 162.8 85.4289 164C89.4289 179.4 95.3289 190.4 103.129 197C111.129 203.6 119.429 206.9 128.029 206.9C135.029 206.9 141.229 205.4 146.629 202.4C152.029 199.4 156.229 195.2 159.229 189.8C162.429 184.2 164.029 177.7 164.029 170.3C164.029 162.1 162.629 155.5 159.829 150.5C157.229 145.3 153.429 140.8 148.429 137C143.429 133.2 137.329 129.1 130.129 124.7C122.329 119.7 114.629 114.7 107.029 109.7C99.4289 104.5 93.1289 98.6 88.1289 92C83.1289 85.2 80.6289 77 80.6289 67.4C80.6289 57.2 82.9289 48 87.5289 39.8C92.1289 31.6 99.0289 25.1 108.229 20.3C117.629 15.3 129.329 12.8 143.329 12.8C150.529 12.8 156.729 13.6 161.929 15.2C167.329 16.6 171.629 18 174.829 19.4C176.429 20 177.729 21 178.729 22.4C179.929 23.8 180.729 25.3 181.129 26.9C182.329 31.1 183.629 35.9 185.029 41.3C186.429 46.7 187.129 51.8 187.129 56.6C187.129 58.8 185.629 59.9 182.629 59.9C180.829 59.9 179.029 59.5 177.229 58.7C175.629 57.9 174.629 56.9 174.229 55.7C170.029 45.1 165.129 37 159.529 31.4C153.929 25.8 146.829 23 138.229 23C132.229 23 126.629 24.1 121.429 26.3C116.229 28.5 111.929 32.1 108.529 37.1C105.329 42.1 103.729 48.8 103.729 57.2C103.729 63.2 105.629 68.7 109.429 73.7C113.429 78.5 118.629 83.1 125.029 87.5C131.429 91.9 138.329 96.4 145.729 101C152.729 105.2 159.529 109.8 166.129 114.8C172.929 119.8 178.429 125.8 182.629 132.8C187.029 139.6 189.229 148 189.229 158C189.229 169.8 186.529 180.2 181.129 189.2C175.729 198 168.129 204.8 158.329 209.6C148.529 214.4 137.029 216.8 123.829 216.8ZM244.982 216.5C233.982 216.5 224.382 213.8 216.182 208.4C207.982 203 201.582 195.4 196.982 185.6C192.382 175.6 190.082 164.1 190.082 151.1C190.082 139.5 192.682 129 197.882 119.6C203.282 110 210.382 102.3 219.182 96.5C227.982 90.7 237.582 87.8 247.982 87.8C255.982 87.8 263.082 89.4 269.282 92.6C275.482 95.8 280.282 100.3 283.682 106.1C287.282 111.7 289.082 118.2 289.082 125.6C289.082 131.8 286.082 134.9 280.082 134.9H216.782C213.982 134.9 211.982 135.7 210.782 137.3C209.782 138.7 209.282 141.6 209.282 146C209.282 155.6 211.382 164.4 215.582 172.4C219.782 180.2 225.382 186.5 232.382 191.3C239.382 195.9 247.082 198.2 255.482 198.2C261.482 198.2 266.882 197.1 271.682 194.9C276.682 192.5 281.082 189.1 284.882 184.7C285.682 183.7 286.282 183.1 286.682 182.9C287.082 182.5 287.582 182.3 288.182 182.3C289.782 182.3 290.582 183.3 290.582 185.3C290.582 189.1 288.782 193.3 285.182 197.9C282.182 201.7 278.582 205 274.382 207.8C270.182 210.6 265.582 212.7 260.582 214.1C255.582 215.7 250.382 216.5 244.982 216.5ZM217.382 125.6H244.682C249.482 125.6 253.582 125.5 256.982 125.3C260.382 125.1 263.682 124.7 266.882 124.1C267.882 123.9 268.482 123.3 268.682 122.3C269.082 121.1 269.282 119.5 269.282 117.5C269.282 111.7 266.682 106.8 261.482 102.8C256.482 98.6 250.482 96.5 243.482 96.5C238.882 96.5 234.282 97.9 229.682 100.7C225.082 103.3 221.282 106.6 218.282 110.6C215.282 114.6 213.782 118.6 213.782 122.6C213.782 124.6 214.982 125.6 217.382 125.6ZM240.482 74.9C238.882 74.9 238.082 74 238.082 72.2C238.082 71.6 238.182 70.9 238.382 70.1C238.582 69.1 238.882 68 239.282 66.8C240.682 63 242.882 58.2 245.882 52.4C249.082 46.4 252.182 40.6 255.182 35C258.382 29.4 260.782 25.3 262.382 22.7C263.382 21.1 264.582 19.8 265.982 18.8C267.582 17.8 269.082 17.3 270.482 17.3C274.282 17.3 277.682 17.8 280.682 18.8C283.682 19.8 285.182 21.4 285.182 23.6C285.182 24.8 284.882 25.8 284.282 26.6C283.882 27.4 283.182 28.5 282.182 29.9C279.782 33.3 276.482 37.6 272.282 42.8C268.282 47.8 264.182 52.7 259.982 57.5C255.782 62.3 252.382 66 249.782 68.6C245.582 72.8 242.482 74.9 240.482 74.9ZM288.677 212.9C287.677 212.9 286.377 212.7 284.777 212.3C283.377 212.1 282.677 211.4 282.677 210.2C282.677 208.6 283.377 207.5 284.777 206.9C286.377 206.1 287.977 205.4 289.577 204.8C292.577 203.8 295.477 202.7 298.277 201.5C301.077 200.1 302.477 197.4 302.477 193.4V42.2C302.477 36.4 301.377 31.6 299.177 27.8C297.177 23.8 293.677 21.3 288.677 20.3C287.077 19.9 286.277 18.6 286.277 16.4C286.277 14.4 286.977 13.2 288.377 12.8C293.577 11.6 298.077 10.4 301.877 9.19998C305.677 7.79999 309.177 6.39999 312.377 4.99998C315.777 3.59999 319.077 2.29999 322.277 1.1C323.077 0.699991 323.677 0.499987 324.077 0.499987C324.477 0.499987 324.777 0.799989 324.977 1.39999C325.377 1.79999 325.577 2.19999 325.577 2.6C325.577 4.4 325.177 8.29999 324.377 14.3C323.777 20.1 323.477 29.8 323.477 43.4V193.4C323.477 197.4 324.877 200.1 327.677 201.5C330.477 202.7 333.377 203.8 336.377 204.8C337.977 205.4 339.477 206.1 340.877 206.9C342.477 207.5 343.277 208.6 343.277 210.2C343.277 211.4 342.477 212.1 340.877 212.3C339.477 212.7 338.277 212.9 337.277 212.9C333.477 212.9 330.377 212.7 327.977 212.3C325.777 212.1 323.577 211.9 321.377 211.7C319.377 211.5 316.577 211.4 312.977 211.4C309.577 211.4 306.777 211.5 304.577 211.7C302.377 211.9 300.177 212.1 297.977 212.3C295.777 212.7 292.677 212.9 288.677 212.9ZM391.947 216.5C380.947 216.5 371.347 213.8 363.147 208.4C354.947 203 348.547 195.4 343.947 185.6C339.347 175.6 337.047 164.1 337.047 151.1C337.047 139.5 339.647 129 344.847 119.6C350.247 110 357.347 102.3 366.147 96.5C374.947 90.7 384.547 87.8 394.947 87.8C402.947 87.8 410.047 89.4 416.247 92.6C422.447 95.8 427.247 100.3 430.647 106.1C434.247 111.7 436.047 118.2 436.047 125.6C436.047 131.8 433.047 134.9 427.047 134.9H363.747C360.947 134.9 358.947 135.7 357.747 137.3C356.747 138.7 356.247 141.6 356.247 146C356.247 155.6 358.347 164.4 362.547 172.4C366.747 180.2 372.347 186.5 379.347 191.3C386.347 195.9 394.047 198.2 402.447 198.2C408.447 198.2 413.847 197.1 418.647 194.9C423.647 192.5 428.047 189.1 431.847 184.7C432.647 183.7 433.247 183.1 433.647 182.9C434.047 182.5 434.547 182.3 435.147 182.3C436.747 182.3 437.547 183.3 437.547 185.3C437.547 189.1 435.747 193.3 432.147 197.9C429.147 201.7 425.547 205 421.347 207.8C417.147 210.6 412.547 212.7 407.547 214.1C402.547 215.7 397.347 216.5 391.947 216.5ZM364.347 125.6H391.647C396.447 125.6 400.547 125.5 403.947 125.3C407.347 125.1 410.647 124.7 413.847 124.1C414.847 123.9 415.447 123.3 415.647 122.3C416.047 121.1 416.247 119.5 416.247 117.5C416.247 111.7 413.647 106.8 408.447 102.8C403.447 98.6 397.447 96.5 390.447 96.5C385.847 96.5 381.247 97.9 376.647 100.7C372.047 103.3 368.247 106.6 365.247 110.6C362.247 114.6 360.747 118.6 360.747 122.6C360.747 124.6 361.947 125.6 364.347 125.6ZM484.912 216.5C474.912 216.5 465.812 214 457.612 209C449.612 203.8 443.212 196.8 438.412 188C433.812 179 431.512 169 431.512 158C431.512 145 434.312 133.2 439.912 122.6C445.712 112 453.412 103.6 463.012 97.4C472.612 91 483.212 87.8 494.812 87.8C507.812 87.8 519.212 91.3 529.012 98.3C531.412 100.1 532.612 102 532.612 104C532.612 105.6 531.912 107.4 530.512 109.4C529.112 111.4 527.412 113.1 525.412 114.5C523.412 115.7 521.512 116.3 519.712 116.3C518.712 116.3 517.712 116 516.712 115.4C515.712 114.6 514.612 113.8 513.412 113C509.012 109.6 504.112 106.4 498.712 103.4C493.312 100.4 488.812 98.9 485.212 98.9C475.412 98.9 467.412 103.5 461.212 112.7C455.212 121.7 452.212 133.6 452.212 148.4C452.212 157.8 454.212 166.3 458.212 173.9C462.412 181.5 467.912 187.5 474.712 191.9C481.712 196.3 489.412 198.5 497.812 198.5C503.612 198.5 508.612 197.6 512.812 195.8C517.012 193.8 521.512 190.4 526.312 185.6C526.712 185.2 527.212 184.9 527.812 184.7C528.412 184.3 528.912 184.1 529.312 184.1C531.512 184.1 532.612 185.5 532.612 188.3C532.612 189.5 532.212 190.9 531.412 192.5C530.812 193.9 529.712 195.6 528.112 197.6C524.912 201.6 521.112 205.1 516.712 208.1C512.312 210.9 507.412 213 502.012 214.4C496.812 215.8 491.112 216.5 484.912 216.5ZM578.88 216.2C569.08 216.2 561.38 213.2 555.78 207.2C550.38 201.2 547.68 192.3 547.68 180.5V110.9C547.68 109.3 547.08 108.2 545.88 107.6C544.68 106.8 542.08 106.4 538.08 106.4H536.28C535.28 106.4 534.38 105.8 533.58 104.6C532.98 103.2 532.68 101.8 532.68 100.4C532.68 100 532.98 99.4 533.58 98.6C534.18 97.8 534.58 97.3 534.78 97.1C538.78 94.3 542.38 91.5 545.58 88.7C548.98 85.9 551.98 83.2 554.58 80.6C557.38 77.8 559.68 75.3 561.48 73.1C562.48 72.1 563.28 71.3 563.88 70.7C564.68 69.9 565.58 69.5 566.58 69.5C567.58 69.5 568.48 69.7 569.28 70.1C570.28 70.5 570.68 71.4 570.48 72.8L568.98 86.3C568.78 88.5 569.28 90 570.48 90.8C571.68 91.6 573.58 92 576.18 92H610.38C611.18 92 611.88 92.7 612.48 94.1C613.08 95.3 613.38 96.8 613.38 98.6C613.38 100.4 613.08 102.2 612.48 104C611.88 105.6 611.18 106.4 610.38 106.4H580.68C575.68 106.4 572.38 106.8 570.78 107.6C569.38 108.4 568.68 110.8 568.68 114.8V173.9C568.68 181.9 570.38 188.2 573.78 192.8C577.18 197.4 582.08 199.7 588.48 199.7C594.28 199.7 598.78 199.3 601.98 198.5C605.18 197.5 608.08 196.1 610.68 194.3C611.08 193.9 611.48 193.7 611.88 193.7C612.68 193.7 613.18 194.2 613.38 195.2C613.78 196 613.98 196.9 613.98 197.9C613.98 198.9 612.28 200.9 608.88 203.9C605.68 206.9 601.38 209.7 595.98 212.3C590.78 214.9 585.08 216.2 578.88 216.2ZM608.716 212.9C606.916 212.9 605.416 212.6 604.216 212C603.216 211.6 602.716 210.8 602.716 209.6C602.716 208 603.416 206.9 604.816 206.3C606.416 205.7 608.016 205.2 609.616 204.8C613.816 203.8 617.016 202.6 619.216 201.2C621.416 199.6 622.516 197 622.516 193.4V128.3C622.516 122.9 621.516 118.1 619.516 113.9C617.716 109.7 614.216 107.2 609.016 106.4C608.016 106.2 607.216 105.8 606.616 105.2C606.216 104.6 606.016 103.7 606.016 102.5C606.016 100.3 606.916 99.1 608.716 98.9C616.716 97.1 623.316 94.7 628.516 91.7C633.716 88.5 637.616 85.9 640.216 83.9C642.016 82.5 643.416 81.8 644.416 81.8C645.616 81.8 646.216 82.3 646.216 83.3C646.216 84.9 645.916 88.1 645.316 92.9C644.916 97.5 644.516 102.7 644.116 108.5C643.716 114.1 643.516 119.2 643.516 123.8V193.4C643.516 196.8 644.616 199.3 646.816 200.9C649.216 202.5 652.416 203.8 656.416 204.8C658.016 205.2 659.516 205.7 660.916 206.3C662.516 206.9 663.316 208 663.316 209.6C663.316 211.8 661.316 212.9 657.316 212.9C653.516 212.9 650.416 212.7 648.016 212.3C645.816 212.1 643.616 211.9 641.416 211.7C639.416 211.5 636.616 211.4 633.016 211.4C629.616 211.4 626.816 211.5 624.616 211.7C622.416 211.9 620.216 212.1 618.016 212.3C615.816 212.7 612.716 212.9 608.716 212.9ZM632.716 57.2C628.516 57.2 624.916 55.8 621.916 53C619.116 50 617.716 46.4 617.716 42.2C617.716 37.8 619.116 34.2 621.916 31.4C624.916 28.4 628.516 26.9 632.716 26.9C637.116 26.9 640.716 28.4 643.516 31.4C646.516 34.2 648.016 37.8 648.016 42.2C648.016 46.4 646.516 50 643.516 53C640.716 55.8 637.116 57.2 632.716 57.2ZM718.251 216.2C707.051 216.2 696.951 213.6 687.951 208.4C678.951 203.2 671.751 196.1 666.351 187.1C661.151 177.9 658.551 167.5 658.551 155.9C658.551 147.5 660.151 139.3 663.351 131.3C666.751 123.3 671.451 116 677.451 109.4C683.451 102.8 690.451 97.6 698.451 93.8C706.451 89.8 715.051 87.8 724.251 87.8C735.851 87.8 746.251 90.6 755.451 96.2C764.851 101.8 772.251 109.2 777.651 118.4C783.251 127.4 786.051 137.3 786.051 148.1C786.051 159.7 783.451 170.7 778.251 181.1C773.251 191.5 765.751 200 755.751 206.6C745.751 213 733.251 216.2 718.251 216.2ZM724.551 207.2C731.351 207.2 737.451 205.9 742.851 203.3C748.251 200.7 752.451 196.5 755.451 190.7C757.851 186.1 759.451 180.5 760.251 173.9C761.051 167.3 761.451 161.1 761.451 155.3C761.451 145.7 759.651 136.5 756.051 127.7C752.651 118.7 747.751 111.4 741.351 105.8C735.151 100 727.751 97.1 719.151 97.1C713.751 97.1 708.851 98 704.451 99.8C700.251 101.4 696.351 104.5 692.751 109.1C688.751 114.1 686.151 120.2 684.951 127.4C683.751 134.6 683.151 141.8 683.151 149C683.151 158.8 684.951 168.2 688.551 177.2C692.151 186 697.051 193.2 703.251 198.8C709.451 204.4 716.551 207.2 724.551 207.2ZM788.786 212.9C786.986 212.9 785.486 212.6 784.286 212C783.286 211.6 782.786 210.8 782.786 209.6C782.786 208 783.386 207 784.586 206.6C785.786 206 787.486 205.4 789.686 204.8C792.686 204 795.586 202.9 798.386 201.5C801.186 200.1 802.586 197.4 802.586 193.4V128.9C802.586 123.5 801.986 118.9 800.786 115.1C799.786 111.3 796.686 108.7 791.486 107.3C790.686 106.9 789.986 106.5 789.386 106.1C788.786 105.5 788.486 104.6 788.486 103.4C788.486 101.2 789.386 100 791.186 99.8C798.186 98 803.886 95.8 808.286 93.2C812.686 90.6 816.986 87.7 821.186 84.5C821.786 84.1 822.286 83.8 822.686 83.6C823.286 83.2 823.886 83 824.486 83C824.886 83 825.186 83.2 825.386 83.6C825.786 84 825.986 84.5 825.986 85.1C825.986 86.5 825.686 89.4 825.086 93.8C824.686 98 824.486 101.5 824.486 104.3C824.486 105.1 824.486 105.9 824.486 106.7C824.686 107.3 824.886 107.7 825.086 107.9C832.086 101.3 839.486 96.3 847.286 92.9C855.286 89.5 863.986 87.8 873.386 87.8C883.186 87.8 891.286 91.8 897.686 99.8C904.086 107.8 907.286 117.7 907.286 129.5V193.4C907.286 197.4 908.686 200.1 911.486 201.5C914.286 202.7 917.186 203.8 920.186 204.8C921.786 205.4 923.286 206.1 924.686 206.9C926.286 207.5 927.086 208.6 927.086 210.2C927.086 211.4 926.386 212.1 924.986 212.3C923.586 212.7 922.286 212.9 921.086 212.9C917.086 212.9 913.986 212.7 911.786 212.3C909.586 212.1 907.486 211.9 905.486 211.7C903.486 211.5 900.686 211.4 897.086 211.4C893.686 211.4 890.886 211.5 888.686 211.7C886.486 211.9 884.186 212.1 881.786 212.3C879.586 212.7 876.486 212.9 872.486 212.9C871.486 212.9 870.186 212.7 868.586 212.3C867.186 212.1 866.486 211.4 866.486 210.2C866.486 208.6 867.186 207.5 868.586 206.9C870.186 206.1 871.786 205.4 873.386 204.8C876.386 203.8 879.286 202.7 882.086 201.5C884.886 200.1 886.286 197.4 886.286 193.4V130.4C886.286 121.6 883.786 114.8 878.786 110C873.986 105 867.486 102.4 859.286 102.2C852.086 102.2 845.786 103.4 840.386 105.8C834.986 108 830.186 110.8 825.986 114.2C825.186 115 824.586 116.1 824.186 117.5C823.786 118.7 823.586 119.9 823.586 121.1V193.4C823.586 197.4 824.986 200.1 827.786 201.5C830.586 202.9 833.486 204 836.486 204.8C841.086 206 843.386 207.6 843.386 209.6C843.386 210.8 842.886 211.6 841.886 212C840.886 212.6 839.386 212.9 837.386 212.9C833.386 212.9 830.186 212.7 827.786 212.3C825.586 212.1 823.486 211.9 821.486 211.7C819.486 211.5 816.686 211.4 813.086 211.4C809.686 211.4 806.886 211.5 804.686 211.7C802.686 211.9 800.486 212.1 798.086 212.3C795.886 212.7 792.786 212.9 788.786 212.9ZM956.282 216.2C950.082 216.2 944.282 215.2 938.882 213.2C933.482 211.4 928.882 208.8 925.082 205.4C924.082 203.2 923.282 199.5 922.682 194.3C922.282 189.1 921.982 184.8 921.782 181.4C921.782 179.6 923.082 178.7 925.682 178.7C926.482 178.7 927.182 178.9 927.782 179.3C928.582 179.5 929.082 180 929.282 180.8C931.882 190.6 935.982 197.6 941.582 201.8C947.382 206 953.182 208.1 958.982 208.1C964.782 208.1 969.682 206.2 973.682 202.4C977.882 198.4 979.982 193.5 979.982 187.7C979.982 182.3 978.182 177.7 974.582 173.9C970.982 169.9 964.682 165.1 955.682 159.5C948.882 155.3 943.382 151.3 939.182 147.5C934.982 143.7 931.882 139.8 929.882 135.8C928.082 131.8 927.182 127.3 927.182 122.3C927.182 115.9 928.682 110.1 931.682 104.9C934.682 99.7 939.182 95.6 945.182 92.6C951.182 89.4 958.682 87.8 967.682 87.8C973.682 87.8 978.682 88.4 982.682 89.6C986.682 90.8 989.682 92.1 991.682 93.5C993.282 95.7 994.582 99.2 995.582 104C996.782 108.6 997.382 113 997.382 117.2C997.382 118.6 996.382 119.3 994.382 119.3C993.182 119.3 991.982 119.1 990.782 118.7C989.782 118.1 989.082 117.4 988.682 116.6C986.082 110 982.782 105 978.782 101.6C974.982 98 970.182 96.2 964.382 96.2C959.382 96.2 954.882 97.7 950.882 100.7C947.082 103.7 945.182 108.1 945.182 113.9C945.182 118.5 946.582 122.6 949.382 126.2C952.382 129.8 957.882 133.9 965.882 138.5C977.482 145.1 986.082 151.3 991.682 157.1C997.482 162.7 1000.38 170.2 1000.38 179.6C1000.38 190.4 996.282 199.2 988.082 206C979.882 212.8 969.282 216.2 956.282 216.2ZM1012.45 276.2C1010.45 276.2 1008.55 275.6 1006.75 274.4C1005.15 273.2 1004.35 271.6 1004.35 269.6C1004.35 269.4 1004.65 268.8 1005.25 267.8C1006.05 267 1006.85 266.2 1007.65 265.4C1008.45 264.6 1008.85 264.1 1008.85 263.9C1013.45 258.5 1017.95 250.8 1022.35 240.8C1026.95 231 1031.05 219.8 1034.65 207.2C1038.25 194.4 1041.15 181.2 1043.35 167.6C1045.55 153.8 1046.65 140.5 1046.65 127.7C1046.65 110.7 1044.65 94.7 1040.65 79.7C1036.85 64.5 1031.95 51 1025.95 39.2C1020.15 27.4 1014.15 18 1007.95 11C1007.75 10.8 1007.35 10.3 1006.75 9.5C1006.15 8.5 1005.55 7.6 1004.95 6.8C1004.35 5.99999 1004.05 5.49999 1004.05 5.3C1004.05 3.89999 1004.85 2.79999 1006.45 1.99999C1008.25 0.999987 1009.65 0.499987 1010.65 0.499987C1012.25 0.499987 1013.75 0.799989 1015.15 1.39999C1016.75 1.99999 1017.95 2.79999 1018.75 3.8C1024.15 9.19999 1029.85 16.5 1035.85 25.7C1042.05 34.7 1047.85 45 1053.25 56.6C1058.65 68 1063.05 80.1 1066.45 92.9C1069.85 105.7 1071.55 118.5 1071.55 131.3C1071.55 141.5 1070.35 152.3 1067.95 163.7C1065.75 174.9 1062.65 186.2 1058.65 197.6C1054.85 208.8 1050.55 219.4 1045.75 229.4C1040.95 239.4 1036.05 248.3 1031.05 256.1C1026.25 263.9 1021.75 269.9 1017.55 274.1C1016.15 275.5 1014.45 276.2 1012.45 276.2Z" fill="#D9D9D9"/>
</svg>
